<svg xmlns="http://www.w3.org/2000/svg" xmlns:xlink="http://www.w3.org/1999/xlink" viewBox="0 0 877.22 907.86"><defs><style>.a,.r{fill:none;}.b{fill:#6f6f6f;}.c{fill:#4b4b4b;}.d{fill:#919191;}.e{fill:#5f5f5f;}.f{fill:#c3c3c3;}.g{fill:gray;}.h{fill:#a7a7a7;}.i{clip-path:url(#a);}.j,.q{fill:#4caf50;}.j,.l,.m,.n{opacity:0.5;}.k{clip-path:url(#b);}.l{fill:#2196f3;}.m{fill:#f44336;}.o{clip-path:url(#c);}.p{fill:#ffeb3b;}.q,.r{stroke:#000;stroke-miterlimit:10;stroke-width:2px;}</style><clipPath id="a" transform="translate(-71.64 -31)"><polyline class="a" points="288.31 104.57 355.16 225 660.56 225.76 737.95 87.99 476.01 25.74"/></clipPath><clipPath id="b" transform="translate(-71.64 -31)"><polyline class="a" points="288.31 104.57 355.16 225 660.56 225.76 737.95 87.99 1204 575.81 530.44 1045.26 105.89 772.78 12 338.02"/></clipPath><clipPath id="c" transform="translate(-71.64 -31)"><path class="a" d="M506.75,496,335.3,198a.38.38,0,0,0-.7.09L757,314.55l-8.16,453.12L208.42,668.2a.38.38,0,0,0,.56.43l297.63-172.1A.38.38,0,0,0,506.75,496Z"/></clipPath></defs><title>DiskStructure</title><path class="b" d="M681.76,549.67c6.82,1.91,13.66,3.78,20.46,5.74,3.76,1.05,3.93,1.51,2.68,5.26a223.83,223.83,0,0,1-30.84,60.67c-2.6,3.6-2.65,3.65-6,1q-16.91-13.24-33.75-26.55c-3-2.35-3-2.48-.85-5.54a166.74,166.74,0,0,0,18.41-33.5C653,554,654,551,655,548.11c1.87-5.29,2-5.36,7.21-3.92Z" transform="translate(-71.64 -31)"/><path class="c" d="M559.37,328.19l5.61-20c1.25-4.44,1.37-4.52,5.7-3.12a211.85,211.85,0,0,1,37.63,16.24,245.85,245.85,0,0,1,23,14.51c3.35,2.37,3.38,2.52.93,5.66q-13.37,17.08-26.8,34.1c-2.26,2.87-2.37,2.91-5.45.71A168.61,168.61,0,0,0,556.16,354c-3.57-1.22-3.63-1.3-2.64-4.92C555.42,342.12,557.42,335.15,559.37,328.19Z" transform="translate(-71.64 -31)"/><path class="b" d="M712.08,472.78a1.7,1.7,0,0,1-1.36,1.38c-.91.18-1.81.35-2.73.46q-21.09,2.54-42.19,5.05c-4,.47-4.12.43-4.78-3.45a165.81,165.81,0,0,0-14.92-46c-2-4-1.9-4.08,2-6.3q18.31-10.35,36.65-20.59c3.82-2.14,3.89-2.12,5.84,1.71a220.65,220.65,0,0,1,21.15,64.71C711.95,470.86,712,471.94,712.08,472.78Z" transform="translate(-71.64 -31)"/><path class="b" d="M638.24,341.37c.71.54,1.6,1.15,2.41,1.84a219,219,0,0,1,44,51.3c2.39,3.85,2.36,4-1.63,6.27q-18.3,10.35-36.63,20.59c-3.76,2.11-3.85,2.12-6-1.35a167.33,167.33,0,0,0-31.4-36.7c-3.27-2.87-3.25-3-.73-6.16q13.1-16.72,26.26-33.38C635.38,342.63,636,341,638.24,341.37Z" transform="translate(-71.64 -31)"/><path d="M682.17,546.66c-6.52-1.83-13.06-3.61-19.56-5.49-4.84-1.41-5.2-.26-3.8-6.53,1.18-5.26,2-10.55,2.72-15.9a155.58,155.58,0,0,0,.8-30.84c-.31-4.56-.25-4.56,4.47-5.12l42.6-5.12c3.31-.39,3.43-.33,3.68,2.85a222.81,222.81,0,0,1-.71,43.72c-1,8.1-2.47,16.11-4.11,24.09-.16.76-.29,1.51-.5,2.26-.81,2.87-.84,3-3.83,2.2C696.69,550.77,689.43,548.7,682.17,546.66Z" transform="translate(-71.64 -31)"/><path class="d" d="M668.35,628.58c-.61.74-1.25,1.63-1.94,2.45a219,219,0,0,1-51.29,44c-3.5,2.17-4,2.09-6-1.52q-10.42-18.48-20.81-37c-2-3.54-2-3.77,1.41-5.86a164.85,164.85,0,0,0,36.72-31.35c2.89-3.28,3-3.26,6.31-.68q16.53,12.94,33,26C666.95,625.54,668.78,626.28,668.35,628.58Z" transform="translate(-71.64 -31)"/><path d="M583.64,635.08c.3.44.78,1,1.15,1.68q11.22,19.88,22.4,39.8c1,1.82.53,2.78-1.18,3.59-4.86,2.28-9.63,4.88-14.58,7a222.5,222.5,0,0,1-51.76,15c-4.06.68-4.09.68-4.54-3.3q-2.64-21.77-5.21-43.54c-.38-3.14-.34-3.25,2.81-3.76a163.43,163.43,0,0,0,35.89-10.21c4.13-1.72,8.12-3.72,12.19-5.55C581.61,635.35,582.35,634.64,583.64,635.08Z" transform="translate(-71.64 -31)"/><path d="M385.13,661.15l5.58-7.1,23.36-29.75c2.14-2.72,2.24-2.75,5-.78a173.62,173.62,0,0,0,33,18.31c3.71,1.55,7.57,2.6,11.28,4.07,3.28,1.31,3.37,1.35,2.47,4.62Q460,671.64,454,692.74c-1,3.68-1.12,3.7-4.76,2.49A224.25,224.25,0,0,1,387.85,664,6.61,6.61,0,0,1,385.13,661.15Z" transform="translate(-71.64 -31)"/><path class="e" d="M482.35,297.67a1.93,1.93,0,0,1,1.65,1.73c.14,1,.3,1.82.41,2.74q2.52,20.65,4.93,41.28c.55,4.53.53,4.59-3.93,5.36a165.35,165.35,0,0,0-45.91,15.09c-3.5,1.75-3.59,1.73-5.55-1.82q-10.55-18.71-21.05-37.46c-1.91-3.4-1.89-3.51,1.41-5.2a216.72,216.72,0,0,1,56.47-19.82c3-.61,6.05-1.13,9.09-1.65C480.78,297.76,481.7,297.77,482.35,297.67Z" transform="translate(-71.64 -31)"/><path d="M130,420.79c2.78.63,3.62.27,2.88,4.23a419.14,419.14,0,0,0-6.17,44.72c-.3,3.56-.68,7.05-.73,10.58,0,2.29-.88,2.81-3.06,2.71-13.21-.62-26.41-1.1-39.62-1.62a42.2,42.2,0,0,0-5.53-.2c-2.72.26-3.06-1.22-2.92-3.34.88-12.89,1.91-25.76,3.82-38.53,1.09-7.14,2.3-14.26,3.47-21.4.23-1.37.57-2.71.75-4.08.32-2.34,1.41-3.09,3.8-2.46,3.71,1,7.49,1.69,11.26,2.5Q114,417.37,130,420.79Z" transform="translate(-71.64 -31)"/><path class="f" d="M913.52,621.1c-10.29-3.14-20.4-6.86-30.81-9.63-3.78-1-3.82-1.45-3.41-5.21.74-6.78,3.12-13.16,4.75-19.72,2.3-9.25,3.87-18.65,5.41-28.05.28-1.67.54-3.34.87-5,.76-3.72,1.13-4,4.91-3.59,10.57,1.28,21.05,2.64,31.58,4l9.62,1.17c4.34.53,5.05,1.27,4.44,5.65-.85,6.09-1.72,12.18-3,18.2-2.8,13.22-5.38,26.5-9.07,39.53-1.81,6.47-1.81,6.47-8.18,4.68Z" transform="translate(-71.64 -31)"/><path d="M409.62,896.34c1.47-6.93,3.37-13.74,4.81-20.67.64-3,.91-3.26,4.11-2.49A383.88,383.88,0,0,0,460.68,881c4.11.55,8.24.95,12.34,1.47,3.52.45,3.57.5,3.3,3.89q-1.44,17.45-2.92,34.91c-.27,3.21-.58,6.43-.78,9.64-.14,2.16-1.06,2.79-3.27,2.57-13.29-1.33-26.56-3.15-39.69-5.67-7.7-1.47-15.34-3.22-23-4.87-3.89-.84-4.09-.92-3.08-4.89C405.43,910.81,407.58,903.6,409.62,896.34Z" transform="translate(-71.64 -31)"/><path class="b" d="M893.4,546.48c-2-.25-2-2-1.8-4,.62-7.2,1.21-14.41,1.69-21.63.71-10.73.72-21.54.49-32.31-.08-4.21,0-4.25,4.32-4.45q21-1,42-1.89l.46,0c4.2-.09,4.22-.09,4.33,4.35.08,3.54.16,7.08.17,10.62a471.58,471.58,0,0,1-2.62,51.17c-.43,4.1-.75,4.34-4.94,3.81L896.25,547C895.49,546.87,894.74,546.71,893.4,546.48Z" transform="translate(-71.64 -31)"/><path d="M138,274.3,173.45,296c1.7,1,3.39,2.12,5.14,3.07,2,1.11,2.26,2.26,1,4.39-4.37,7.59-8.62,15.25-12.65,23-4.46,8.59-8.43,17.43-12.22,26.34-1.43,3.36-1.47,3.43-4.63,2.17q-20.36-8.09-40.69-16.25c-3.39-1.36-3.53-1.56-2.24-4.64a438.53,438.53,0,0,1,29.65-58.78A8,8,0,0,1,138,274.3Z" transform="translate(-71.64 -31)"/><path class="b" d="M912,334.76c-.51,1.1-1.66,1.36-2.61,1.71q-8.55,3.5-17.12,6.95l-23.12,9.34c-3.76,1.51-3.82,1.51-5.39-2.1-5.35-12.29-11.09-24.38-17.62-36.09-2.43-4.32-4.78-8.63-7.33-12.83-1.25-2-.91-3.26,1.12-4.48Q859,285.53,878,273.66c2.2-1.35,3.19-.71,4.36,1.22a469.6,469.6,0,0,1,29,57.24A4.38,4.38,0,0,1,912,334.76Z" transform="translate(-71.64 -31)"/><path d="M698.67,162.82c3-5.45,6.13-10.95,9.17-16.46,4.33-7.79,8.62-15.61,13-23.38,1.56-2.78,1.69-2.78,4.46-1.19a457.28,457.28,0,0,1,53.18,35.69c2.6,2,2.6,2.11.59,4.64q-13.84,17.28-27.74,34.51c-2.14,2.65-2.24,2.67-5.07.51a422.8,422.8,0,0,0-45.55-30.55C697.85,164.95,697.88,164.82,698.67,162.82Z" transform="translate(-71.64 -31)"/><path class="b" d="M640.2,132.31l13.26-37.93c1.61-4.64,1.88-4.85,6.59-3,13.65,5.25,27.17,10.83,40.29,17.32,5.25,2.59,10.47,5.22,15.65,7.93,3.56,1.86,3.63,2.1,1.71,5.57Q707.31,141,696.83,159.71c-1.88,3.44-2,3.49-5.63,1.59a420.85,420.85,0,0,0-38.51-17.9c-3.43-1.39-6.9-2.65-10.3-4.07-4-1.66-4-1.71-2.72-5.73.13-.45.29-.87.44-1.32Z" transform="translate(-71.64 -31)"/><path d="M349.62,852.87c-3.73,8.34-7.61,17-11.51,25.74-2.14,4.76-4.32,9.52-6.46,14.28-1.63,3.62-1.79,3.72-5.39,2-13.3-6.39-26.41-13.14-39.05-20.77-5.51-3.37-11-6.78-16.5-10.09-1.93-1.17-2.34-2.22-.88-4.35Q282.57,841,295,822.13c1.47-2.22,2.73-1.72,4.47-.57a377.82,377.82,0,0,0,36.3,21c4.12,2.07,8.3,4,12.42,6.09C350.57,849.81,350.6,850,349.62,852.87Z" transform="translate(-71.64 -31)"/><path class="b" d="M199.58,728.5c-.51.44-1.06,1-1.67,1.43q-18,13.38-36,26.71c-2.46,1.82-2.63,1.73-4.69-1.09-5.94-8-11.45-16.43-16.69-24.91-5.85-9.42-11.47-19-16.51-28.82-1.74-3.37-1.72-3.4,1.67-5.13l37.87-19.26c.41-.21.84-.38,1.24-.63,1.91-1.18,3.46-1.1,4.42,1.24a18.37,18.37,0,0,0,.89,1.62,417.06,417.06,0,0,0,27.92,45.17C198.76,725.82,200,726.75,199.58,728.5Z" transform="translate(-71.64 -31)"/><path class="c" d="M572.53,118.79c-.32,2.33-2.24,1.75-4.12,1.48a414.75,414.75,0,0,0-41.76-4.07c-4.15-.19-8.3-.26-12.46-.42-3.79-.15-3.86-.17-3.89-3.89q-.1-18.47-.12-36.94c0-2.31-.05-4.61,0-6.93.09-3.3.16-3.48,3.39-3.38,7.84.23,15.68.51,23.53.93,12.92.69,25.77,2.27,38.56,4,.76.1,1.51.32,2.27.42,2,.23,2.52,1.41,2.23,3.23-.54,3.34-1,6.69-1.57,10q-2.86,17.08-5.82,34.12Z" transform="translate(-71.64 -31)"/><path class="e" d="M479.55,885.38c.26-1.75,1.39-2.17,3-2.07,4.76.27,9.54.52,14.3.67q19.86.62,39.71-.7c5.18-.37,5.2-.29,5.64,4.6q1.84,20.71,3.64,41.42c.39,4.55.35,4.59-4.28,4.9a474.27,474.27,0,0,1-61.39.17c-.77-.05-1.53-.19-2.3-.2a1.94,1.94,0,0,1-2.16-2.33c.07-1.47.21-2.76.32-4.14l3.27-40.06C479.34,886.91,479.46,886.15,479.55,885.38Z" transform="translate(-71.64 -31)"/><path d="M432.16,71.63a1.44,1.44,0,0,1,1.51,1.1,21.17,21.17,0,0,1,.45,2.26q3.75,21.59,7.49,43.18c.59,3.42.55,3.5-2.81,4.16a430.06,430.06,0,0,0-53.53,14.13c-3,1-3.08,1-4.18-2.08q-7.47-20.86-14.88-41.75c-1.12-3.17-1.09-3.26,1.87-4.27A472.89,472.89,0,0,1,430,72,18.69,18.69,0,0,1,432.16,71.63Z" transform="translate(-71.64 -31)"/><path class="c" d="M934.63,409.19c1.2.51,1.23,1.68,1.44,2.7.87,4.38,1.77,8.76,2.51,13.16a484.16,484.16,0,0,1,5.72,48.61c0,.77.06,1.54.14,2.31.2,1.88-.48,3-2.49,3-.61,0-1.23,0-1.84.06l-41.51,1.89c-1.08,0-2.16,0-3.23.08a1.62,1.62,0,0,1-1.86-1.6c-.14-1.07-.24-2.14-.3-3.22A401.91,401.91,0,0,0,886.36,424c-.18-.91-.31-1.83-.48-2.73a1.57,1.57,0,0,1,1.06-1.95l.29-.06c.89-.23,1.79-.41,2.7-.64l41.08-9A8.72,8.72,0,0,1,934.63,409.19Z" transform="translate(-71.64 -31)"/><path d="M727.25,816.92c4.57-3.32,9-6.57,13.43-9.89a407.45,407.45,0,0,0,31.83-26.69c2.81-2.61,2.51-2.72,5.35.24q15,15.65,30.1,31.26c2.67,2.78,2.67,2.84,0,5.29A464.21,464.21,0,0,1,758.93,857c-3.12,2.21-3.18,2.19-5.23-.82Q741.34,838,729,819.87C728.43,819,727.91,818.05,727.25,816.92Z" transform="translate(-71.64 -31)"/><path d="M901,620.76c7.11,2,14.23,3.92,21.32,6,3.51,1,3.58,1.3,2.55,4.45a479,479,0,0,1-23,57.8c-2.2,4.61-2.24,4.56-7,2.18q-18.53-9.29-37.09-18.54c-3.73-1.87-3.81-1.9-2-5.78a397.91,397.91,0,0,0,20-50.53C876.93,613,877,613,880.46,614l20.86,5.85Z" transform="translate(-71.64 -31)"/><path class="b" d="M855.05,674.71l12.37,6.2q13.4,6.72,26.81,13.43c4,2,4.09,2.06,1.9,6.21a470.62,470.62,0,0,1-32.28,52.69c-2.37,3.35-2.53,3.39-5.75,1q-17.33-12.66-34.58-25.42c-3.16-2.33-3.19-2.51-.83-5.89a437.34,437.34,0,0,0,27.93-45.62C851.52,675.6,852.25,673.43,855.05,674.71Z" transform="translate(-71.64 -31)"/><path d="M668,850.52a12.78,12.78,0,0,0,.58,2.19q9.34,20.61,18.71,41.21c1.32,2.92,1.3,3-1.68,4.32a458.93,458.93,0,0,1-60.41,21.52c-3.06.86-3.15.81-4-2.36q-5.68-21.43-11.28-42.86c-.84-3.21-.8-3.31,2.14-4.15a423.63,423.63,0,0,0,53.44-19.12C666.06,851,666.66,850.92,668,850.52Z" transform="translate(-71.64 -31)"/><path d="M506,64.71c1.41.48,1,1.77,1.06,2.73.08,4.3,0,8.61,0,12.92,0,10.61.1,21.22.12,31.83,0,3.43-.07,3.5-3.53,3.56a431.67,431.67,0,0,0-55.1,4.88c-3.1.48-3.17.41-3.76-2.82Q440.93,96,437.17,74.16c-.56-3.26-.52-3.36,2.63-3.86a464.11,464.11,0,0,1,63.85-5.65C504.41,64.62,505.18,64.69,506,64.71Z" transform="translate(-71.64 -31)"/><path d="M161.77,761.31a6.39,6.39,0,0,1,2.41-2.36q17.59-13.1,35.2-26.16c2.87-2.13,3-2.13,5,.48A423,423,0,0,0,241,774.71c2.36,2.34,2.34,2.41-.14,5q-15,15.71-29.94,31.39c-2.8,2.92-2.84,2.93-5.67.13A459.35,459.35,0,0,1,167.44,769C165.45,766.42,163.19,764.09,161.77,761.31Z" transform="translate(-71.64 -31)"/><path class="e" d="M142.22,615.42c1.29.51,1.4,1.5,1.71,2.3,1.64,4.65,3.19,9.33,4.88,14a395.31,395.31,0,0,0,15.48,36.58c2,4.21,2.53,4-2.3,6.42q-18.14,9.18-36.27,18.45c-.55.28-1.08.61-1.64.83-3.34,1.59-3.39,1.6-5.07-1.91-2.07-4.31-4.12-8.61-6.07-13A464.21,464.21,0,0,1,96,635.59c-.29-.87-.53-1.78-.87-2.63-.8-2-.39-3.1,1.81-3.77q21.67-6.59,43.29-13.36C141,615.66,141.72,615.53,142.22,615.42Z" transform="translate(-71.64 -31)"/><path d="M183.8,211.41c.63-.73,1.21-1.48,1.82-2.15a470.66,470.66,0,0,1,45.52-43.81c2.92-2.44,3-2.45,5.34.43q13.85,17,27.64,34c2.16,2.66,2.15,2.73-.49,5A427.39,427.39,0,0,0,224.11,243c-2.44,2.68-2.51,2.66-5.33.19q-16.33-14.26-32.62-28.57C185.11,213.73,183.73,213.1,183.8,211.41Z" transform="translate(-71.64 -31)"/><path class="g" d="M867,358c.63-1.54,2-1.71,3.06-2.16q11.54-4.72,23.11-9.38c5.71-2.31,11.4-4.65,17.14-6.91,3.45-1.36,3.58-1.34,4.81,1.83a450.14,450.14,0,0,1,18.65,60.45c.82,3.56.56,3.94-3,4.73q-21.2,4.69-42.42,9.24c-3.38.73-3.5.67-4.35-2.82a423.77,423.77,0,0,0-16.12-52.08C867.51,359.88,867.28,358.84,867,358Z" transform="translate(-71.64 -31)"/><path class="c" d="M878.26,269.65a21.14,21.14,0,0,1-1.71,1.28c-12.81,7.95-25.67,15.82-38.42,23.83-2.21,1.4-3.17.57-4.35-1.22a388.91,388.91,0,0,0-23.91-33.38c-3.08-3.84-6.18-7.66-9.41-11.38-1.37-1.6-1.5-2.69.19-4.17,11.34-9.93,22.59-20,33.89-29.93,2.26-2,2.36-1.92,5,1.15a460.15,460.15,0,0,1,34.13,45.32c1.35,2.06,2.71,4.11,4,6.18A2.46,2.46,0,0,1,878.26,269.65Z" transform="translate(-71.64 -31)"/><path class="c" d="M621.16,79.46l24,6.73a28.28,28.28,0,0,1,3.07,1c3.75,1.39,3.92,1.59,2.69,5.31-1.65,5-3.39,9.89-5.13,14.82-3,8.55-6.05,17.1-9,25.7-1.32,3.76-1.52,3.94-5.3,2.65a370,370,0,0,0-51.32-13.26,18.37,18.37,0,0,0-1.8-.39c-2.25-.31-3.09-1.34-2.65-3.78,1.55-8.47,2.89-17,4.32-25.47,1-6.09,2-12.14,3.14-18.18.66-3.46.84-3.5,4.31-2.87A323.65,323.65,0,0,1,621.16,79.46Z" transform="translate(-71.64 -31)"/><path class="b" d="M858.51,760.44c-.38.54-.88,1.31-1.44,2a462,462,0,0,1-41.32,47.14c-2.71,2.7-2.93,2.72-5.48.07Q795,793.95,779.86,778.12c-2.28-2.38-2.29-2.54,0-4.83a427.91,427.91,0,0,0,36.46-41.61c2-2.55,2.2-2.57,4.83-.65q17.87,13.07,35.68,26.25C857.74,758,859.06,758.53,858.51,760.44Z" transform="translate(-71.64 -31)"/><path class="b" d="M545.1,884c.62-1.65,2-1.48,3.19-1.63,7.58-1.05,15.26-2,22.86-3.12,10.5-1.56,20.87-3.83,31.2-6.29,3.63-.87,3.69-.79,4.66,2.86q5.49,20.75,10.91,41.51c1.06,4.1,1,4.18-3.29,5.23a460.66,460.66,0,0,1-60.87,10.6c-4.37.46-4.42.43-4.8-3.83q-1.87-21.14-3.69-42.29C545.17,885.95,545.12,884.87,545.1,884Z" transform="translate(-71.64 -31)"/><path d="M141.76,611.06c-.2,1.09-1,1.31-1.68,1.54q-3.52,1.12-7,2.2L96.89,626c-3.57,1.09-3.62,1.06-4.68-2.59a462.24,462.24,0,0,1-13.45-61.68c-.53-3.65-.5-3.7,3.28-4.21q21.75-2.86,43.43-5.67c3.31-.42,3.41-.37,3.87,2.71A421.08,421.08,0,0,0,141.23,609C141.44,609.73,141.61,610.48,141.76,611.06Z" transform="translate(-71.64 -31)"/><path class="c" d="M608.12,135.44c7.31,1.9,14.5,4.19,21.64,6.64,3,1,3.24,1.24,2.2,4.32-2.71,8-5.6,16-8.4,24-2,5.8-4,11.62-6,17.43-1.16,3.32-1.27,3.45-4.62,2.43-10-3.06-20.06-6-30.27-8.39-4.2-1-8.45-1.74-12.65-2.69s-4.27-1-3.65-5.12c.93-6.11,2-12.19,3-18.23q2.08-12.29,4.22-24.58c.55-3.18.73-3.27,3.94-2.7C587.79,130.38,597.93,133,608.12,135.44Z" transform="translate(-71.64 -31)"/><path class="e" d="M147.2,394.34c3.22-9.94,6.23-20,10-29.71,1.07-2.75,1.31-2.9,4-1.82q20.57,8.15,41.11,16.41c3.21,1.3,3.34,1.52,2.15,4.78q-5.57,15.17-9.82,30.75c-1.16,4.15-2.11,8.35-3.28,12.5-.87,3.1-1.1,3.23-4.2,2.58q-21-4.41-42-8.93c-4.47-1-4.44-1.07-3.43-5.56C143.42,408.29,145.07,401.25,147.2,394.34Z" transform="translate(-71.64 -31)"/><path class="c" d="M647,796.74c.71-1.12,2-1.43,3-1.94a331.5,331.5,0,0,0,30.37-16.53c3.15-1.91,6.28-3.87,9.34-5.93,1.65-1.12,2.65-.83,3.74.79q12.78,18.93,25.68,37.77c1.34,2,.67,2.92-1,4Q707,822.23,695.29,828.8c-7.9,4.46-15.93,8.68-24.15,12.53-3.53,1.66-3.58,1.66-5.1-1.67q-9.11-19.93-18.17-39.88C647.46,798.82,646.81,797.9,647,796.74Z" transform="translate(-71.64 -31)"/><path class="c" d="M230.29,327.1c-.7-.4-1.38-.76-2-1.16q-18.1-11.1-36.18-22.21c-3.57-2.19-3.6-2.26-1.48-5.58a396.49,396.49,0,0,1,31.45-42.7c2.48-2.95,2.56-2.92,5.44-.43q16.36,14.25,32.65,28.58c2.78,2.45,2.8,2.53.41,5.44a437.78,437.78,0,0,0-26.5,36C233.2,326.33,232.65,328.54,230.29,327.1Z" transform="translate(-71.64 -31)"/><path d="M803,648.66c4.65,2.31,9.48,4.69,14.29,7.1q12.78,6.4,25.54,12.83c3.77,1.89,3.8,2,1.76,5.85a403.66,403.66,0,0,1-27.48,44.79c-2.31,3.26-2.33,3.28-5.59.88Q794.25,707.4,777,694.66c-.62-.46-1.24-.91-1.83-1.42a1.64,1.64,0,0,1-.31-2.71c.79-.93,1.38-2,2.09-3.06a432,432,0,0,0,22.57-37C800.91,648,801,648,803,648.66Z" transform="translate(-71.64 -31)"/><path class="c" d="M504.71,122.46c1.87.17,2.3.73,2.36,1.57s.08,1.84.09,2.76q.07,21.26.14,42.46c0,4.09,0,4.18-3.94,4.31a424,424,0,0,0-44.58,3.89c-3.46.49-3.55.42-4.17-3q-3.83-21.57-7.52-43.17c-.6-3.46-.54-3.57,2.49-4.05a406,406,0,0,1,54.23-4.83C504.43,122.41,505,122.48,504.71,122.46Z" transform="translate(-71.64 -31)"/><path class="d" d="M482.79,876.57a2.48,2.48,0,0,1-2.3-2.91c0-1.23.15-2.45.25-3.68q1.64-19.8,3.29-39.59c.36-4.53.55-4.77,4.93-4.58a425.82,425.82,0,0,0,43.87-.16c3.71-.23,3.83,0,4.18,3.75q1.93,21.4,3.77,42.8c.33,3.73,0,4.09-3.53,4.35a398.48,398.48,0,0,1-53.06.21Z" transform="translate(-71.64 -31)"/><path class="e" d="M696.35,171.74c3,1.76,6,3.5,8.86,5.22a409.09,409.09,0,0,1,36,24.81l1.81,1.42c1.12.93,1.42,2,.41,3.16-.49.59-.94,1.21-1.42,1.81l-26,32.4c-.58.75-1.17,1.43-1.75,2.14-.93,1.12-1.89,1.37-3.15.37-1.69-1.33-3.51-2.5-5.22-3.8a369.21,369.21,0,0,0-32.6-21.72c-3.74-2.27-3.77-2.35-1.78-6q10.39-18.76,20.85-37.48C693.3,172.6,693.89,170.45,696.35,171.74Z" transform="translate(-71.64 -31)"/><path class="e" d="M132.34,488.32a1.7,1.7,0,0,1,1.64-1.57,25.67,25.67,0,0,1,2.74,0l42.34,1.66c4.19.17,4.28.23,4.2,4.52a420.46,420.46,0,0,0,2,44.19c.34,3.56.27,3.67-3.09,4.12q-21.71,2.9-43.43,5.68c-3.45.44-3.72.29-4.07-2.64a392,392,0,0,1-2.4-54.73C132.28,489,132.32,488.57,132.34,488.32Z" transform="translate(-71.64 -31)"/><path class="e" d="M373.3,800.12,365,818.53c-3.15,7-6.25,14.07-9.46,21-1.88,4.08-2.19,4.17-6.17,2.27A412.58,412.58,0,0,1,309.24,820c-2-1.22-3.93-2.43-5.84-3.72-2.91-2-3-2.06-1-5,6.4-9.61,12.86-19.16,19.3-28.75,1.55-2.3,3.06-4.61,4.66-6.89,2.45-3.57,2.47-3.56,6-1.45,1.19.71,2.4,1.39,3.56,2.14a364.49,364.49,0,0,0,34.35,18.94,21,21,0,0,1,2,1C374.16,797.4,374.2,797.54,373.3,800.12Z" transform="translate(-71.64 -31)"/><path class="e" d="M185.81,432.71c4,.85,4.22,1.18,3.44,5.31a332,332,0,0,0-5.41,43c-.31,4.34-.32,4.39-4.62,4.22q-21.23-.82-42.48-1.69c-4.15-.17-4.32-.35-4.09-4.18a399.67,399.67,0,0,1,6.7-53.11c.6-3.07,1-3.36,4-2.75Q164.61,428.1,185.81,432.71Z" transform="translate(-71.64 -31)"/><path class="d" d="M738.35,733.45c.62-.74,1.24-1.62,2-2.38a345.19,345.19,0,0,0,28.9-33c2.51-3.23,2.73-3.25,5.9-.93q17.33,12.69,34.61,25.46c3.06,2.26,3.1,2.54.87,5.49a383,383,0,0,1-35,39.95c-2.7,2.69-2.92,2.66-5.51,0q-14.94-15.44-29.82-30.94C739.37,736.13,738.21,735.22,738.35,733.45Z" transform="translate(-71.64 -31)"/><path d="M836.09,539.37c-2.53.39-2.08-1.77-1.89-3.62a425.66,425.66,0,0,0,1.87-45.64c0-3.17,0-3.27,3.21-3.41q18.46-.89,36.9-1.7l6.45-.28c4.44-.18,4.45-.17,4.55,4.44.26,12.47,0,24.93-.84,37.37q-.54,7.6-1.33,15.17c-.39,3.62-.5,3.66-3.9,3.24C866.3,543.15,851.5,541.29,836.09,539.37Z" transform="translate(-71.64 -31)"/><path class="c" d="M286.24,738.17c.54.44,1.16.91,1.73,1.4a353.6,353.6,0,0,0,35.22,28.35c3,2.15,3,2.26.87,5.46Q312.14,791.22,300.15,809c-2.36,3.51-2.43,3.49-6,1a405,405,0,0,1-41-33c-2.84-2.62-2.89-2.69-.31-5.38q14.95-15.73,30-31.39C283.74,739.34,284.43,737.92,286.24,738.17Z" transform="translate(-71.64 -31)"/><path class="f" d="M643,798.43c1.38.58,1.59,1.7,2,2.65l11.89,26,5.56,12.15c2.1,4.55,1.87,5.46-2.7,7.32-7.12,2.9-14.24,5.78-21.48,8.38-8.67,3.13-17.41,6.11-26.29,8.6-4.24,1.19-4.74.92-5.84-3.23q-5.43-20.5-10.78-41c-1-3.68-.7-4,3.12-5.13a334.59,334.59,0,0,0,42.08-15.07A4.33,4.33,0,0,1,643,798.43Z" transform="translate(-71.64 -31)"/><path d="M540,826.29c.09-1.42,1.33-1.29,2.36-1.42,4-.5,7.93-.94,11.89-1.49q16.68-2.31,33-6.27c4-1,4-.91,5,2.81q5.59,21.18,11.13,42.36c.85,3.23.81,3.32-2.22,4.06a407.61,407.61,0,0,1-54,9.38c-1.69.17-3,.33-3.15-2-1.29-15.46-2.69-30.91-4-46.36C540,827,540,826.74,540,826.29Z" transform="translate(-71.64 -31)"/><path class="d" d="M563.36,172.75c-1.06,4.83-1.08,4.94-5.1,4.38a379,379,0,0,0-43.63-3.56c-3.83-.09-4.15-.41-4.18-4.36q-.14-21.45-.12-42.91c0-3.6.24-3.88,3.55-3.84a401.6,401.6,0,0,1,53.3,4.34c3.25.48,3.67,1,3.15,4.27-1.73,10.77-3.55,21.53-5.35,32.3Z" transform="translate(-71.64 -31)"/><path class="b" d="M323,172.21c1.15.39,1.52,1.46,2.06,2.4q3.75,6.62,7.47,13.26,6.9,12.26,13.77,24.54c2,3.67,2.06,3.8-1.29,5.77a352,352,0,0,0-37,25.15c-2.8,2.17-2.94,2.15-5.16-.54q-13.85-17-27.61-34c-2.17-2.7-2.12-3,.62-5.15a408.89,408.89,0,0,1,44.58-30.3A5.21,5.21,0,0,1,323,172.21Z" transform="translate(-71.64 -31)"/><path class="e" d="M203.87,376.35c-9.87-3.93-20.31-8.06-30.74-12.26-3.28-1.31-6.55-2.61-9.8-4-3.61-1.56-3.69-1.78-2.11-5.48,5-11.74,10.47-23.29,16.6-34.5Q181.14,314,184.6,308c2.17-3.77,2.3-3.83,5.92-1.62q13.21,8,26.37,16.16c3.41,2.09,6.85,4.14,10.23,6.28,3.16,2,3.21,2.12,1.31,5.41C222.51,344.52,217,355,212.14,365.81c-1.33,2.94-2.57,5.93-3.93,8.86C207,377.36,206.92,377.34,203.87,376.35Z" transform="translate(-71.64 -31)"/><path class="c" d="M628.16,166.64c1.78-5.15,4.17-12.13,6.62-19.09,1.13-3.23,1.49-3.35,4.65-2.17a396,396,0,0,1,48.35,21.68c3.73,2,3.79,2.15,1.69,5.94q-10.26,18.55-20.56,37c-2.06,3.7-2.13,3.75-5.95,1.73A328,328,0,0,0,623.47,194c-4.21-1.55-4.3-1.74-2.86-6C622.87,181.49,625.22,175,628.16,166.64Z" transform="translate(-71.64 -31)"/><path class="e" d="M423.07,844.2a238.89,238.89,0,0,1,5.79-23.88c1-3.44,1.09-3.52,4.48-2.78A404.58,404.58,0,0,0,477.88,825c3.29.34,3.42.54,3.13,4.15q-1.36,17-2.8,34c-.26,3.21-.45,6.44-.82,9.64s-.67,3.52-3.72,3.14c-8.69-1.07-17.4-2-26-3.47s-17.27-3-25.77-5.19c-4.74-1.21-4.82-1.27-3.59-5.84C420.07,854.7,422,848.06,423.07,844.2Z" transform="translate(-71.64 -31)"/><path class="e" d="M735.66,737c.44.39,1,.84,1.58,1.35q15.52,16.09,31,32.22c2.23,2.33,2.21,2.44-.26,4.76a396.57,396.57,0,0,1-41.5,33.72c-3.13,2.21-3.26,2.2-5.39-.93q-12.37-18.09-24.63-36.25c-1.85-2.74-1.82-2.88.8-4.75a357.48,357.48,0,0,0,35.43-28.76C733.5,737.75,734.19,736.77,735.66,737Z" transform="translate(-71.64 -31)"/><path class="e" d="M270.64,208.62c1.15.45,1.78,1.55,2.53,2.53q10.24,12.5,20.38,25c2,2.51,4.06,5,6.09,7.52,3.37,4.22,3.05,3.75-.52,6.8q-12.47,10.65-23.9,22.39c-2.79,2.86-5.56,5.73-8.2,8.76-1.48,1.69-2.63,1.56-4.21.16-11.19-9.87-22.45-19.65-33.63-29.47-2.48-2.19-2.45-2.31.09-5.11a401,401,0,0,1,33.62-32.9c1.86-1.62,3.74-3.2,5.63-4.79A2.88,2.88,0,0,1,270.64,208.62Z" transform="translate(-71.64 -31)"/><path d="M858.68,356.56a3.79,3.79,0,0,1-1.89,1.22l-41.91,17c-3,1.21-3.07,1.21-4.35-1.69a362.94,362.94,0,0,0-20.88-41.11,4.53,4.53,0,0,1-1-2.84l26.84-16.67c4.58-2.84,9.16-5.63,13.72-8.51,1.5-.94,2.55-1.25,3.67.67a400.87,400.87,0,0,1,25.69,51.06A3.45,3.45,0,0,1,858.68,356.56Z" transform="translate(-71.64 -31)"/><path class="d" d="M813.57,380c.47-1.69,1.75-2,2.85-2.43q8.11-3.33,16.25-6.61,12-4.84,24-9.67c3.43-1.37,3.74-1.26,5.08,2.22a382.51,382.51,0,0,1,15.65,50.67c.85,3.48.58,3.81-3.12,4.64q-21,4.66-41.92,9.19c-3.74.77-4,.71-4.82-2.86a372.29,372.29,0,0,0-13.23-42.74C814,381.52,813.76,380.62,813.57,380Z" transform="translate(-71.64 -31)"/><path d="M219.23,649.17a375.81,375.81,0,0,0,27.53,44.43L205.84,724a391.8,391.8,0,0,1-32.13-51.74Z" transform="translate(-71.64 -31)"/><path class="d" d="M847.44,600.56c-6.81-1.91-13.64-3.76-20.44-5.73-3.91-1.14-4.26-1.71-3.18-5.6,3.12-11.12,5.55-22.39,7.55-33.75.4-2.27.73-4.55,1.09-6.83,1-6.1,1.36-6.41,7.35-5.67s11.89,1.51,17.84,2.27l22,2.81c4.24.55,4.63,1,4,5.3q-1.4,8.88-3,17.73a323.35,323.35,0,0,1-7.87,32.2c-1.39,4.72-1.77,5-6.43,3.46C860,604.67,853.84,602.4,847.44,600.56Z" transform="translate(-71.64 -31)"/><path class="f" d="M248.81,697.16a5.86,5.86,0,0,1,2.27,2.2,387.8,387.8,0,0,0,29.35,33.17c2.41,2.5,2.44,3-.11,5.72-4.8,5.2-9.68,10.33-14.58,15.44q-7.7,8-15.43,15.89c-2.37,2.4-2.56,2.36-4.79.17a395.47,395.47,0,0,1-34.61-39c-.19-.24-.37-.49-.55-.74-2.31-3.21-2.33-3.62.71-6,4.76-3.66,9.59-7.21,14.41-10.79q9.81-7.27,19.65-14.53C246.23,697.92,247.24,696.83,248.81,697.16Z" transform="translate(-71.64 -31)"/><path d="M398.28,192.1c-.19,1.35-1.24,1.47-2,1.77-4.28,1.74-8.59,3.4-12.85,5.17-10,4.11-19.63,8.86-29.17,13.89-3,1.59-3.11,1.56-4.83-1.5q-10.78-19.11-21.5-38.24c-1.77-3.17-1.72-3.21,1.66-5a403.41,403.41,0,0,1,47.86-21.82c.57-.22,1.17-.39,1.73-.64,1.53-.7,2.67-.53,3.14,1.31.11.44.32.86.47,1.3l14.7,41.31C397.77,190.49,398,191.37,398.28,192.1Z" transform="translate(-71.64 -31)"/><path class="e" d="M420.88,840.79l-5.47,19.52c-1.35,4.81-1.35,4.81-6.32,3.49A385,385,0,0,1,360.78,847c-.57-.23-1.11-.53-1.68-.77-1.94-.83-2.33-2-1.37-4,2.38-5,4.53-10.09,6.79-15.14q5.26-11.78,10.56-23.55c2.24-5,2.33-5.07,7.1-3.08a373.3,373.3,0,0,0,40.88,14.31c3.59,1,3.73,1.28,2.77,4.87-1.88,7-3.9,13.91-5.85,20.86Z" transform="translate(-71.64 -31)"/><path class="f" d="M794,252.16a9.08,9.08,0,0,1,2.72,2.53,390.89,390.89,0,0,1,25.43,33.43c2,2.91,3.87,5.93,5.78,8.91,1.28,1.93.88,3.36-1.12,4.6-5.51,3.4-10.89,7-16.38,10.37q-10.2,6.33-20.49,12.47c-3.43,2-3.77,1.88-5.86-1.35a350.53,350.53,0,0,0-25.51-34.52c-3.11-3.73-3.16-3.82.42-7q15.49-13.87,31.08-27.6C791.19,253,792.2,251.64,794,252.16Z" transform="translate(-71.64 -31)"/><path class="f" d="M833.93,599.81c10.58,3.77,21.36,6.9,32.15,10,3.83,1.07,4.27,1.85,3.09,5.66-1.74,5.57-3.57,11.13-5.68,16.57-4.07,10.45-8.28,20.85-13.23,30.94-2,4-2.89,4.43-6.74,2.52q-18.8-9.35-37.51-18.87c-3.12-1.58-3.25-2.16-1.86-5.43,3.61-8.49,7.34-16.92,10.79-25.47,2.09-5.11,3.76-10.4,5.7-15.59,1.15-3.08,1.69-3.4,4.79-2.66C828.32,598.15,831.11,599,833.93,599.81Z" transform="translate(-71.64 -31)"/><path class="f" d="M877.53,421.59a2.23,2.23,0,0,1,1.77,1.7c.23.89.41,1.79.61,2.7a382.85,382.85,0,0,1,6.71,50.78c.28,4.08-.06,4.54-4.18,4.76q-21,1.05-42,2c-4.16.18-4.57-.17-4.87-4.21A428.6,428.6,0,0,0,830,435.83c-.62-3.46-.34-4,3.17-4.81,5.23-1.27,10.51-2.37,15.77-3.51q12.86-2.77,25.74-5.48C875.69,421.79,876.76,421.7,877.53,421.59Z" transform="translate(-71.64 -31)"/><path class="c" d="M748.14,207.29c.7.54,1.45,1.08,2.16,1.67a404.17,404.17,0,0,1,38.4,36.62c2.72,3,2.72,3-.35,5.78q-16.23,14.41-32.52,28.76c-2.55,2.25-2.67,2.26-5.09-.35A361.71,361.71,0,0,0,718,248.57c-2.53-2.13-2.54-2.26-.56-4.71q13.84-17.31,27.76-34.56C745.95,208.37,746.54,207.12,748.14,207.29Z" transform="translate(-71.64 -31)"/><path class="d" d="M196.87,598.49a2.33,2.33,0,0,1,2.13,1.94c.68,1.88,1.3,3.78,2,5.67a348.73,348.73,0,0,0,15,36.24c1.86,3.87,1.87,4-2,5.94q-18.47,9.49-37,18.88c-.55.28-1.13.49-1.67.79-2,1.13-3.46.64-4.44-1.49-1.71-3.64-3.51-7.2-5.15-10.85-5.35-12.11-10.29-24.38-14.44-37-.29-.87-.53-1.77-.87-2.63-.91-2.28,0-3.38,2.23-4,5.17-1.51,10.29-3.18,15.44-4.78l25.58-7.87C194.83,599,196,598.72,196.87,598.49Z" transform="translate(-71.64 -31)"/><path class="e" d="M196.91,594.16a2.26,2.26,0,0,1-1.38,1.29c-.73.24-1.46.5-2.19.72L152.8,608.68c-4.22,1.29-4.27,1.26-5.46-2.83a396.16,396.16,0,0,1-11.2-51.34c-.6-3.95-.56-4,3.49-4.56q21.49-2.85,43-5.61c3.43-.44,3.58-.39,4,2.64a360.5,360.5,0,0,0,9.83,45.08C196.67,592.76,196.78,593.53,196.91,594.16Z" transform="translate(-71.64 -31)"/><path d="M819.67,578.84c-1.59,5.66-3,11-4.57,16.31-1.11,3.74-1.23,3.81-5.14,2.57-7.76-2.47-15.54-4.88-23.21-7.62-5.79-2.08-11.66-3.87-17.51-5.76-3.82-1.23-3.91-1.37-2.8-5.15,3.73-12.7,7-25.49,8.82-38.62.34-2.49,1.47-2.82,3.73-2.51,12.62,1.79,25.27,3.44,37.91,5.12,2,.26,4,.47,5.94.76,3.55.58,3.55.6,3.07,4C824.41,558.52,822,568.85,819.67,578.84Z" transform="translate(-71.64 -31)"/><path d="M399.53,748.29c-5.94,13.63-12,27.59-18,41.58-.86,2-1.94,2.46-3.92,1.52a367.52,367.52,0,0,1-44-24.32c-1.95-1.27-1.87-2.34-.68-4.06q12.78-18.65,25.41-37.39c1.12-1.67,2-2.17,4-.92a313.22,313.22,0,0,0,35.92,19.82C400,745.26,400.84,746.11,399.53,748.29Z" transform="translate(-71.64 -31)"/><path class="b" d="M417.78,806.38c-11.66-3.9-21.7-7.07-31.25-11.3-3.09-1.37-3.3-1.74-1.94-4.85q8.67-19.89,17.51-39.71c1.56-3.52,1.74-3.56,5.15-2.14a268.86,268.86,0,0,0,35,11.65l3.12.87c1.69.47,2.13,1.59,1.84,3.18q-.13.68-.28,1.36c-3.12,13.5-6.21,27-9.39,40.5-1.29,5.47-1.39,5.51-6.8,4.1C425.77,808.69,420.9,807.25,417.78,806.38Z" transform="translate(-71.64 -31)"/><path class="e" d="M641,208.38c6.81,3,13,6.19,19.08,9.41q12.86,6.78,25,14.76c2.95,1.93,3,2.09,1,5q-12.26,18.15-24.62,36.24c-1.88,2.76-2.14,2.84-4.77,1.21A365.2,365.2,0,0,0,622,255.89c-3-1.43-3.12-1.86-1.75-5,5.82-13.4,11.72-26.77,17.63-40.12C638.53,209.15,639.11,207.37,641,208.38Z" transform="translate(-71.64 -31)"/><path class="b" d="M449.26,768.12l.13-.45c1.48-5.66,1.24-5.4,6.69-4.37a294.24,294.24,0,0,0,36.19,4.81c4.55.29,4.58.38,4.39,4.92q-.9,21.21-1.88,42.41c-.15,3.77-.47,4-4,3.81a340.13,340.13,0,0,1-45.72-6c-1.21-.25-2.4-.57-3.58-.9a2.24,2.24,0,0,1-1.76-2.64l0-.17a13.45,13.45,0,0,1,.26-1.36l9.39-40Z" transform="translate(-71.64 -31)"/><path d="M745.88,632.13l24.46,13.44c5.39,3,10.71,6.06,16.16,8.93,2,1.05,2.23,2,1.09,3.95A359.63,359.63,0,0,1,759.31,700c-1.41,1.8-2.39,1.73-4.05.35q-17.37-14.49-34.89-28.76c-1.61-1.36-2-2.29-.54-4.12A350.19,350.19,0,0,0,743,633.59C744.27,631.42,744.36,631.47,745.88,632.13Z" transform="translate(-71.64 -31)"/><path class="e" d="M240.84,465.18c1.94.12,2.19,1.53,2,3.23-.38,4.59-.69,9.19-1.13,13.79-.83,8.59-.4,17.19-.61,25.81-.09,3.79-.09,3.87-3.87,4.06q-21.65,1.14-43.31,2.17c-3.69.18-3.78.09-3.89-3.82A330.58,330.58,0,0,1,192,463c.47-4.28.59-4.39,4.71-3.82,14.17,1.84,28.33,3.76,42.5,5.65C239.76,464.94,240.21,465,240.84,465.18Z" transform="translate(-71.64 -31)"/><path class="c" d="M273.13,367.68l-2-1.11q-18.38-10.15-36.76-20.33c-3.79-2.1-3.84-2.27-1.71-5.94A330.14,330.14,0,0,1,259.37,301c2.49-3.14,2.54-3.16,5.69-.56q16.59,13.63,33.14,27.3c3,2.47,3,2.58.87,5.42a350.3,350.3,0,0,0-22,32.43C276.13,367.09,275.4,368.79,273.13,367.68Z" transform="translate(-71.64 -31)"/><path d="M500.15,768.94a20.85,20.85,0,0,1,5.49-.28,341.1,341.1,0,0,0,36.84-1.93c3.75-.4,3.84-.32,4.36,3.23q3.15,21.7,6.24,43.41c.49,3.43.44,3.48-3,3.91a329.51,329.51,0,0,1-48.81,2.43c-3.38-.09-3.45-.12-3.32-3.25q.94-23.05,2-46.09A9.65,9.65,0,0,1,500.15,768.94Z" transform="translate(-71.64 -31)"/><path class="e" d="M828.93,481c-.54,1.78-1.93,1.55-3.1,1.61q-8.76.49-17.56.91c-8.92.46-17.84.94-26.79,1.34-3.31.15-3.43.07-3.68-3.12a369.36,369.36,0,0,0-5.63-39.31c-.66-3.33-.57-3.43,2.92-4.27Q796.2,433,817.33,428c3.72-.88,3.79-.83,4.6,2.84a338.48,338.48,0,0,1,6.86,47.51C828.88,479.28,828.91,480.2,828.93,481Z" transform="translate(-71.64 -31)"/><path class="c" d="M571.65,226.54l-2.24,8c-.8,3-.93,3.33-4.09,2.65-5.87-1.26-11.77-2.23-17.69-3.14-7.15-1-14.33-1.74-21.53-2.26-3.22-.23-3.42-.42-3.29-3.6q.85-21.87,1.84-43.74c.18-3.88.28-3.91,4.43-3.67A337.11,337.11,0,0,1,577,187.28c3,.62,3.13.81,2.39,4.1l-8,35Z" transform="translate(-71.64 -31)"/><path class="b" d="M190.55,519c.24-.84.61-1.34,1.32-1.45.94-.09,1.83-.21,2.76-.25L237,515.2c4.22-.2,4.3-.17,4.7,4.05a358.31,358.31,0,0,0,5.46,37.9c.77,3.77.68,3.83-2.89,4.71Q223.2,567,202.1,572c-3.66.87-3.85.74-4.63-3a338.1,338.1,0,0,1-6.86-47.93A17.48,17.48,0,0,1,190.55,519Z" transform="translate(-71.64 -31)"/><path class="b" d="M264.64,294.62c.66-.81,1.22-1.54,1.82-2.22a334.49,334.49,0,0,1,33.81-34.06c2.88-2.52,3-2.52,5.41.39q13.82,16.42,27.57,32.92c2.73,3.26,2.71,3.34-.51,6.16a287.48,287.48,0,0,0-26.66,26.87c-2.74,3.21-2.83,3.19-6.18.43q-16.42-13.49-32.78-27C266,297.18,264.43,296.49,264.64,294.62Z" transform="translate(-71.64 -31)"/><path class="b" d="M593.29,755.51a1.63,1.63,0,0,1,1.77,1.05,26.31,26.31,0,0,1,1,2.58q6.75,19.87,13.45,39.73c1.49,4.43,1.47,4.48-2.86,5.85a333.89,333.89,0,0,1-45.7,10.94c-4.13.66-4.3.62-4.92-3.74q-3.08-21.22-6.06-42.45c-.5-3.54-.44-3.68,3-4.26A294.85,294.85,0,0,0,591.42,756C592.18,755.74,592.93,755.61,593.29,755.51Z" transform="translate(-71.64 -31)"/><path d="M771.48,316.95c-1.36,1.6-3.17,2.49-4.79,3.62-11.38,7.89-22.8,15.72-34.15,23.65-1.93,1.35-3,1.33-4.44-.67a262,262,0,0,0-26-31.12c-1.5-1.54-1.66-2.5-.05-4.1q16-16,31.87-32c1.39-1.43,2.4-2.06,4.1-.3a344,344,0,0,1,33,39.7A5,5,0,0,1,771.48,316.95Z" transform="translate(-71.64 -31)"/><path class="e" d="M461.6,183.92a1.66,1.66,0,0,1,1.31,1.33c.14.76.28,1.52.39,2.28q3,21,6,42.06c.64,4.55.61,4.62-3.83,5.38a290.18,290.18,0,0,0-36.79,8.81c-3.86,1.19-4,1.15-5.22-2.63q-6.94-20.33-13.8-40.68c-1.29-3.82-1.25-3.87,2.63-5.1A334.25,334.25,0,0,1,459,184.22C459.91,184.1,460.83,184,461.6,183.92Z" transform="translate(-71.64 -31)"/><path d="M283.4,725.85a264.61,264.61,0,0,1-18.14-19.74q-8.22-9.67-15.61-20c-2.12-3-2.14-3.06.66-5q18.2-12.63,36.47-25.17c2.67-1.84,2.78-1.83,4.65.74a287.55,287.55,0,0,0,25.77,30.74c1,1.08,2.39,2.06.68,3.78C306.45,702.61,295.1,714.07,283.4,725.85Z" transform="translate(-71.64 -31)"/><path d="M262.94,608.69a8.77,8.77,0,0,0-1.66.45q-20.94,9.3-41.74,18.67c-2.16,1-2.93.34-3.74-1.61a362,362,0,0,1-16-47.15c-.61-2.28-.22-3.28,2.23-3.84q22-5.12,44-10.52c2.18-.54,2.95,0,3.5,2.15a279.49,279.49,0,0,0,13.17,38.86A4,4,0,0,1,262.94,608.69Z" transform="translate(-71.64 -31)"/><path class="d" d="M756.4,392.9c.5-1.79,2-2.1,3.21-2.64q11.14-5.07,22.31-10,8.42-3.77,16.86-7.5c3.54-1.56,3.7-1.55,5.14,1.89a326.94,326.94,0,0,1,15.53,45.84c.85,3.31.71,3.57-2.74,4.42-10.76,2.64-21.49,5.19-32.29,7.76-3.29.79-6.57,1.64-9.88,2.33-3.53.74-3.87.58-4.85-3-2.26-8.17-4.66-16.26-7.65-24.18-1.51-4.07-3.11-8-4.65-12.05C757,394.78,756.69,393.76,756.4,392.9Z" transform="translate(-71.64 -31)"/><path class="c" d="M681.56,707.94c.42.45,1,1,1.47,1.56,9.58,11.45,19.13,22.92,28.78,34.33,1.55,1.83,1.49,2.93-.42,4.44a360.54,360.54,0,0,1-41,28.3c-1.82,1.08-2.86,1.09-4-.95q-11-19.79-22.18-39.45c-1.22-2.16-.67-3.22,1.29-4.36a278.91,278.91,0,0,0,33.06-22.76C679.38,708.38,680.12,707.51,681.56,707.94Z" transform="translate(-71.64 -31)"/><path class="h" d="M351.47,223c1.38.59,1.85,2,2.51,3.15l15.8,28.11c1.82,3.24,3.56,6.46,5.43,9.64,1.08,1.83.82,3-1.08,4.13a288.22,288.22,0,0,0-33,22.68c-2.53,2-2.79,2-4.88-.51-5.68-6.67-11.29-13.4-16.91-20.11-3.65-4.36-7.33-8.7-10.9-13.08-2.51-3.08-2.51-3.44.58-5.9a301.41,301.41,0,0,1,25.36-18.39c4.52-2.9,9.11-5.7,13.7-8.52C349.07,223.52,350.09,222.73,351.47,223Z" transform="translate(-71.64 -31)"/><path d="M200.41,418.95l3.81-13.57c1.18-4.22,1.27-4.26,5.28-3,7.47,2.38,14.91,4.86,22.35,7.32l18.4,6.07c3.67,1.23,3.76,1.29,2.71,4.79a272.09,272.09,0,0,0-6.7,26.84c-.76,3.92-1.6,7.84-2.15,11.79-.32,2.32-1.16,3.14-3.6,2.8q-22.38-3.17-44.78-6.11c-2-.26-2.74-1-2.4-2.92.65-3.79,1.09-7.62,1.9-11.37C197,433.54,198.33,425.32,200.41,418.95Z" transform="translate(-71.64 -31)"/><path class="b" d="M639.77,735.71c1.23.6,1.64,1.83,2.23,2.87q6.37,11.26,12.68,22.55c2.94,5.23,5.81,10.51,8.85,15.69,1.23,2.11.75,3.18-1.33,4.29a342,342,0,0,1-44.66,19.95c-3.46,1.26-3.57,1.22-4.84-2.5q-6.57-19.23-13.05-38.5c-.44-1.31-.87-2.63-1.33-3.94a2,2,0,0,1,1.35-2.9c.73-.26,1.43-.56,2.16-.83a285.77,285.77,0,0,0,34.55-15.47C637.47,736.38,638.49,735.6,639.77,735.71Z" transform="translate(-71.64 -31)"/><path class="d" d="M404.19,198.3c1.59.26,1.87,1.38,2.22,2.38,1.17,3.34,2.29,6.69,3.42,10.07q5.26,15.52,10.52,31c1.41,4.19,1.38,4.27-2.5,5.67a301.26,301.26,0,0,0-35.36,15.85c-3,1.56-3.09,1.54-4.67-1.26Q367,242.94,356.34,223.8c-1.82-3.24-1.7-3.47,1.64-5.29A324.44,324.44,0,0,1,401.76,199,24.14,24.14,0,0,1,404.19,198.3Z" transform="translate(-71.64 -31)"/><path class="d" d="M478.56,643.13c-7-1.73-7-1.73-5.19-8.37l10.09-36c.29-1,.63-2.05.87-3.11.67-2.37,2.05-3.07,4.5-2.56a107.23,107.23,0,0,0,27,2.08c3.4-.17,3.6,0,4,3.48q2.73,21.71,5.26,43.49c.38,3.24,0,3.55-3.51,3.83a148.74,148.74,0,0,1-34-1.28C484.5,644.24,481.27,644,478.56,643.13Z" transform="translate(-71.64 -31)"/><path d="M625.68,534,647,540c3.27.92,3.35,1.06,2.34,4.11a154.7,154.7,0,0,1-21.8,43.06c-1.15,1.62-2.13,1.84-3.7.6q-18.1-14.31-36.27-28.52c-1.62-1.27-1.38-2.28-.3-3.81A97.86,97.86,0,0,0,600.22,530c.8-2.36,2-2.65,4.12-2C611.45,530.05,618.58,532,625.68,534Z" transform="translate(-71.64 -31)"/><path class="f" d="M543.55,383.89c1.91-6.81,3.74-13.64,5.73-20.43,1.12-3.75,2.18-4.11,5.74-2.83a167.6,167.6,0,0,1,32,15.12c2.74,1.68,5.47,3.44,8.1,5.3,3.25,2.31,3.4,3.15,1,6.31-5.93,7.66-11.94,15.25-17.92,22.87-2.76,3.51-5.47,7-8.3,10.48-2.16,2.63-3,2.81-5.82.93a95.66,95.66,0,0,0-23.85-11.89c-2.9-.93-3.31-2-2.39-5.42C539.68,397.49,541.65,390.7,543.55,383.89Z" transform="translate(-71.64 -31)"/><path class="d" d="M638.07,430.33a3.41,3.41,0,0,1,1.5,1.76,157.38,157.38,0,0,1,14.88,45.38c.5,3.05.21,3.49-3,3.89q-21.71,2.71-43.49,5.22c-3.37.39-3.78.07-4.39-3.15a100.94,100.94,0,0,0-8.48-25.76c-1.46-3-1.39-3.12,1.82-5q14.07-8,28.11-15.8c3.48-2,7-3.92,10.46-5.86A3.16,3.16,0,0,1,638.07,430.33Z" transform="translate(-71.64 -31)"/><path d="M601.91,386.23a134.73,134.73,0,0,1,19.3,18.85,139.75,139.75,0,0,1,13.8,19c1.59,2.63,1.63,2.73-.94,4.18-13.11,7.41-26.28,14.72-39.36,22.2-2.18,1.27-3.17.6-4.34-1.22A93.49,93.49,0,0,0,572.12,428c-1.81-1.56-1.89-2.61-.4-4.48,9.49-11.91,18.85-23.86,28.25-35.79A3.3,3.3,0,0,1,601.91,386.23Z" transform="translate(-71.64 -31)"/><path class="g" d="M540.79,383.12l-5.73,20.42c-1.12,4-1.43,4.15-5.52,3.26a99,99,0,0,0-25.65-2c-4,.16-4,.14-4.5-3.89q-2.56-21.05-5-42.11c-.55-4.52-.47-4.49,4.18-4.83a156.43,156.43,0,0,1,45.32,3.52c3.43.75,3.76,1.15,2.78,4.76C544.73,369.23,542.74,376.18,540.79,383.12Z" transform="translate(-71.64 -31)"/><path class="d" d="M558.63,582.48a5.84,5.84,0,0,1,2.4-2.06A106,106,0,0,0,581.3,563c2.47-2.73,2.65-2.73,5.66-.38,8.13,6.33,16.21,12.74,24.31,19.1,2.9,2.28,5.82,4.54,8.7,6.86,3.89,3.13,3.89,3.28.54,7.21A138.39,138.39,0,0,1,604,612a132.89,132.89,0,0,1-17.89,13c-3,1.78-3.34,1.74-5-1.26q-10.81-19.08-21.5-38.22C559.08,584.55,558.39,583.66,558.63,582.48Z" transform="translate(-71.64 -31)"/><path class="f" d="M626.06,530.9c-6.67-1.87-13.36-3.67-20-5.61-3.36-1-3.59-1.57-3-5a117.89,117.89,0,0,0,1.8-25.27c-.16-4.4.13-4.84,4.34-5.36q20.84-2.59,41.71-5c3.84-.45,4.51,0,4.73,3.15a150.51,150.51,0,0,1-3.21,44.95l-.62,2.22c-.62,2-2,2.62-3.94,2.1-3.12-.87-6.24-1.69-9.35-2.56L626.08,531Z" transform="translate(-71.64 -31)"/><path class="c" d="M439.85,371.71c.82-1.21,2.18-1.63,3.36-2.25a155.28,155.28,0,0,1,43.28-14.12c4.06-.68,4.11-.67,4.61,3.29q2.6,21.3,5.13,42.61c.49,4.11.45,4.19-3.39,4.91a101.23,101.23,0,0,0-24.94,8.12c-3.61,1.72-3.68,1.7-5.63-1.76q-10.66-18.9-21.26-37.84A6.25,6.25,0,0,1,439.85,371.71Z" transform="translate(-71.64 -31)"/><path class="e" d="M554.71,584.42c1.31.72,1.74,1.93,2.33,3q6.83,12.09,13.6,24.13c2.56,4.55,5.15,9.1,7.67,13.68,1.75,3.22,1.73,3.37-1.33,4.92a152.08,152.08,0,0,1-45,14.64c-3,.47-3.24.31-3.6-2.59-1.86-14.95-3.59-29.9-5.46-44.84-.28-2.26.69-3,2.67-3.31a100.55,100.55,0,0,0,27.07-8.85A18.11,18.11,0,0,1,554.71,584.42Z" transform="translate(-71.64 -31)"/><path class="e" d="M475.51,616.1c-2,7-3.85,13.93-5.85,20.87-.95,3.38-1.26,3.53-4.54,2.49A149.36,149.36,0,0,1,423,618c-2.37-1.7-2.4-2-.51-4.37,9.18-11.74,18.41-23.43,27.6-35.18,1.44-1.87,2.66-2.06,4.58-.68a102.68,102.68,0,0,0,24.51,12.62c3,1.12,3.15,1.32,2.32,4.39C479.54,601.91,477.51,609,475.51,616.1Z" transform="translate(-71.64 -31)"/><path class="d" d="M383.65,573.33c.58-1.11,1.81-1.51,2.86-2.1q12.86-7.27,25.75-14.48c4-2.26,8-4.56,12.08-6.77,2.95-1.61,3.18-1.59,4.83,1a101,101,0,0,0,17.62,20.64c2.43,2.18,2.48,2.81.45,5.42q-13.35,17.09-26.86,34.08c-2.31,2.91-2.75,2.87-5.53.49a156.78,156.78,0,0,1-30.43-35.66C383.43,574.38,383.39,574.05,383.65,573.33Z" transform="translate(-71.64 -31)"/><path class="e" d="M255.51,436c1.25-4.44,2.43-8.91,3.74-13.33,1-3.19,1.25-3.35,4.16-2.39,14.18,4.63,28.34,9.35,42.53,14,2.28.74,2.75,1.91,2.11,4.13a245.85,245.85,0,0,0-6.62,27.83c-.63,3.7-.84,3.79-4.56,3.27-12.66-1.65-25.32-3.38-38-5.08-1.68-.22-3.37-.37-5-.66-3.28-.55-3.72-1-3.13-4.25,1.18-6.51,2.55-12.95,3.89-19.46.28-1.35.75-2.66,1.12-4Z" transform="translate(-71.64 -31)"/><path d="M455.39,756.37c-2.46-.11-3.07-1.36-2.54-3.44.21-.73.23-1.52.4-2.27l9.16-39.56.5-1.78c.92-3.27.93-3.31,4.47-2.78,2.62.4,5.15.89,7.73,1.38,6.81,1.32,13.72,1.77,20.6,2.49,3.44.36,3.51.46,3.37,3.91q-.9,22.12-1.88,44.24c-.14,3.09-.24,3.2-3.12,3A281.32,281.32,0,0,1,455.39,756.37Z" transform="translate(-71.64 -31)"/><path class="d" d="M297.67,472.92c2.24.31,2.53,1.62,2.43,3.11-.2,3.07-.39,6.14-.69,9.2-.62,6.45-.43,12.9-.53,19.36-.07,4.43-.1,4.52-4.24,4.71q-21.19,1.11-42.39,2.12c-4.24.2-4.37,0-4.46-4.29a303.94,303.94,0,0,1,1.54-36.39c.43-4.25.62-4.32,4.89-3.74q20.78,2.87,41.57,5.7A14.83,14.83,0,0,1,297.67,472.92Z" transform="translate(-71.64 -31)"/><path class="g" d="M734.16,575.73c5.94,2.44,12.61,4.3,19.21,6.43,4.53,1.45,4.68,1.93,3.07,6.21a278.89,278.89,0,0,1-14.45,33c-2,3.85-2.1,3.9-5.87,1.82Q717.69,613,699.32,602.81c-3.81-2.12-4-2.59-2-6.49a240.63,240.63,0,0,0,10.52-24.12c1.58-4.25,2.11-4.49,6.55-3C720.75,571.46,727.1,573.73,734.16,575.73Z" transform="translate(-71.64 -31)"/><path class="h" d="M567.36,256.37l2.24-8c.82-2.93,1.18-3.19,4.2-2.63l.89.25a329.7,329.7,0,0,1,34.54,11.61c3.21,1.24,3.69,2.33,2.42,5.23q-8.49,19.48-17.1,38.85c-1.74,3.91-2.32,4.23-6.33,2.53-8.14-3.44-16.66-5.54-25.06-8.06-4-1.21-4.21-1.46-3.32-5.49,2.5-11.42,5.08-22.82,7.62-34.23Z" transform="translate(-71.64 -31)"/><path class="f" d="M749.06,395.41c1.42.66,1.84,2.05,2.34,3.32,3.22,8,6.3,16,8.75,24.31,1,3.54,2.11,7.08,3,10.65.82,3.23.56,3.8-2.65,4.62-5.91,1.59-11.95,3-17.92,4.42q-12.13,2.87-24.28,5.65c-3.64.8-3.86.79-4.87-2.84a266.83,266.83,0,0,0-9-26.65c-1.26-3.18-1.05-3.58,2-4.91q19.79-8.87,39.63-17.64A5.35,5.35,0,0,1,749.06,395.41Z" transform="translate(-71.64 -31)"/><path class="c" d="M617.87,261.28c6,3,11.46,5.53,16.69,8.42,6.18,3.42,12.22,7.07,18.25,10.78,2.78,1.69,2.81,1.92,1,4.62-8.34,12.35-16.74,24.66-25.08,37-1.14,1.68-2.22,2.27-4.13,1.05a241.31,241.31,0,0,0-26.18-14.53c-2-1-2.58-2.12-1.61-4.33,6.05-13.62,12-27.28,17.93-40.94C615.51,261.6,616.37,260.37,617.87,261.28Z" transform="translate(-71.64 -31)"/><path d="M297.63,512.24a1.41,1.41,0,0,1,1.45,1.32,12.77,12.77,0,0,1,.24,1.82,241.52,241.52,0,0,0,4.29,29.17c.49,2.33-.05,3.26-2.41,3.81q-22,5.12-43.93,10.52c-2.19.54-3,0-3.4-2.19a331.4,331.4,0,0,1-5.52-38.78c-.24-3.14-.18-3.22,3.22-3.4q20-1,40.06-2C293.74,512.41,295.88,512.32,297.63,512.24Z" transform="translate(-71.64 -31)"/><path class="g" d="M659.69,285.19c.76.52,1.64,1.12,2.51,1.75a312.7,312.7,0,0,1,27.8,22.9c3.18,3,3.23,3,.18,6.09q-14.77,15-29.58,29.84c-3.3,3.31-3.41,3.35-6.66.37a271.5,271.5,0,0,0-21-17.3c-3.26-2.43-3.26-2.58-1-5.89q12-17.78,24.14-35.51C656.82,286.25,657.45,284.54,659.69,285.19Z" transform="translate(-71.64 -31)"/><path class="d" d="M379.8,273.14c1.09.5,1.5,1.53,2,2.46q3.88,6.83,7.71,13.69l13.13,23.37c2.24,4,2.3,4.14-1.42,6.46-7.85,4.9-15.41,10.2-22.76,15.8-2.9,2.21-3,2.18-5.56-.83q-10.73-12.71-21.37-25.5c-2-2.47-4.18-4.94-6.22-7.45-2.53-3.11-2.54-3.17.71-5.78A255.57,255.57,0,0,1,367.44,280q4.87-3.11,9.8-6.12A3.25,3.25,0,0,1,379.8,273.14Z" transform="translate(-71.64 -31)"/><path class="g" d="M516.62,238.08c2,.22,2.52,1.07,2.52,2.29,0,.91-.09,1.84-.12,2.77l-1.71,41.06c0,.76-.16,1.53-.17,2.3,0,2-1.15,2.68-3,2.63-.91,0-1.83,0-2.74,0a240.8,240.8,0,0,0-25.81,1.34c-4.31.41-4.29.34-4.91-3.95q-3-21-6-42.05c-.57-4-.5-4.16,3.09-4.53A323.83,323.83,0,0,1,515.48,238,11.2,11.2,0,0,1,516.62,238.08Z" transform="translate(-71.64 -31)"/><path class="f" d="M558.65,282c-1,3.5-1.58,5.93-2.31,8.24-1,3.11-1.36,3.37-4.67,3-6.72-.74-13.29-2.53-20.07-2.9-2.46-.13-4.9-.42-7.35-.7-3.61-.42-4-.91-3.86-4.78q.22-6.22.49-12.45.62-14.52,1.27-29c.21-4.49.66-4.94,4.82-4.74,11.08.55,22,2.31,32.94,4.1a22.87,22.87,0,0,1,3.13.8c3.35,1,3.79,1.66,3.06,5C563.55,260,561,271.55,558.65,282Z" transform="translate(-71.64 -31)"/><path class="f" d="M323.45,395.38c-3.12-1.68-6.24-3.33-9.34-5q-14.55-8-29.07-16.07c-3.78-2.1-3.9-2.59-1.6-6.4a322.24,322.24,0,0,1,20.23-29.73c2.59-3.39,2.79-3.46,6.15-.72q16.61,13.57,33.08,27.3c2.61,2.17,2.73,2.65.7,5.31-5.77,7.6-11.07,15.51-16.09,23.63C326,396.06,325.53,396.16,323.45,395.38Z" transform="translate(-71.64 -31)"/><path class="d" d="M299.39,428.87q-16.81-5.67-33.61-11.35c-3.92-1.34-4.17-1.65-2.77-5.68a236.57,236.57,0,0,1,14.81-33.73c1.6-3,2-3.12,5-1.48q19,10.38,37.94,20.9c3.14,1.79,3.26,2.2,1.64,5.44-4.17,8.39-7.81,17-11.29,25.73-1.31,3.28-1.4,3.25-4.71,2.32l-7.1-2Z" transform="translate(-71.64 -31)"/><path class="d" d="M591.85,747.78c-.79,1.51-2.05,1.74-3.22,2-8.16,2.21-16.2,4.89-24.56,6.39-3.33.6-6.64,1.33-10,2-5.59,1.08-5.62,1.07-6.41-4.35q-2.26-15.52-4.45-31c-.52-3.65-1-7.32-1.59-11-.39-2.3.37-3.45,2.68-3.86a225,225,0,0,0,28.7-6.85c2.31-.73,3.35.1,4.08,2.25,4.69,14,9.46,28,14.17,42A20.66,20.66,0,0,1,591.85,747.78Z" transform="translate(-71.64 -31)"/><path class="b" d="M710,668.93c-.57.68-1.23,1.48-2,2.31a305.53,305.53,0,0,1-25.66,25.83c-3.13,2.77-3.2,2.86-5.76-.19q-14-16.58-27.83-33.25c-2.32-2.78-2.36-2.92.16-5.2A275.26,275.26,0,0,0,669,638.16c2.43-2.71,2.58-2.71,5.22-.56q17.12,14,34.16,28.17C709.27,666.5,710.59,667.16,710,668.93Z" transform="translate(-71.64 -31)"/><path class="f" d="M644.62,663.82c.54.57,1.32,1.28,2,2.12q12.89,15.36,25.76,30.76a31.79,31.79,0,0,1,2,2.52c1.64,2.42,1.6,3-.72,5-6.39,5.57-13.44,10.25-20.47,14.93-3.57,2.39-7.29,4.57-10.9,6.9-2,1.31-3.29.78-4.43-1.24q-10.77-19.34-21.67-38.61c-1.1-2-1-3.46,1-4.64.66-.39,1.18-1,1.86-1.35a217.6,217.6,0,0,0,22.33-15.49C642.27,664.07,643.09,663.26,644.62,663.82Z" transform="translate(-71.64 -31)"/><path class="f" d="M315.72,583.62c-.34,1.65-1.59,2-2.71,2.47l-26.13,11.59c-4.49,2-8.94,4.09-13.51,6-3.31,1.38-3.84,1.12-5.21-2.16a309.17,309.17,0,0,1-12-35.34c-.92-3.22-.54-3.72,2.69-4.5q21.06-5.09,42.14-10.1c3.07-.73,3.79-.51,4.62,2.21,3,9.53,6,19.07,9.73,28.33A8.47,8.47,0,0,1,315.72,583.62Z" transform="translate(-71.64 -31)"/><path class="f" d="M383.63,271.17c.55-1.5,1.74-2,2.82-2.52,6.51-3.14,13-6.32,19.59-9.28,4.62-2.07,9.38-3.89,14.12-5.68,3.53-1.33,3.89-1.16,5.06,2.27q7,20.51,13.92,41.09c1.12,3.35.94,3.75-2.09,4.94q-12.89,5.05-25.3,11.19c-4,2-4.14,1.77-6.36-2.17q-10.2-18.1-20.35-36.22C384.38,273.63,383.55,272.49,383.63,271.17Z" transform="translate(-71.64 -31)"/><path class="f" d="M502.33,713.18a2.48,2.48,0,0,1,2.74-2.2c2-.07,4-.22,6-.14,7.08.17,14.15-.58,21.19-1.12,5.69-.46,5.83-.46,6.69,5.36,1.49,9.73,2.81,19.49,4.2,29.24.55,3.8,1.11,7.6,1.59,11.43s.3,4.06-3.31,4.41c-6.73.63-13.48,1.25-20.24,1.61-5.68.29-11.38.25-17.08.24-3.2,0-3.9-.66-3.78-3.79.56-14.6,1.23-29.21,1.87-43.8Z" transform="translate(-71.64 -31)"/><path d="M715.53,453.11A1.88,1.88,0,0,1,717,452c1-.26,2.09-.51,3.14-.76l41.26-9.88c3.57-.82,3.64-.8,4.33,2.52a320.21,320.21,0,0,1,5.5,38.3c.25,3,.18,3.08-2.85,3.24-14.88.78-29.76,1.48-44.64,2.28-2.12.12-3.44-.05-3.62-2.74a234.94,234.94,0,0,0-4.31-30.1A17.16,17.16,0,0,1,715.53,453.11Z" transform="translate(-71.64 -31)"/><path class="h" d="M723.07,527.35c-3.53-.8-4-1.21-3.66-4.78.92-9.21,1.11-18.43,1.19-27.68,0-3.64.25-3.85,4-4.06q21.45-1.18,42.91-2.23c3.87-.19,4,0,4.06,4.18a303.82,303.82,0,0,1-1.46,35.52c-.46,4.88-.86,5.32-5.65,4.69-9.61-1.26-19.21-2.66-28.82-4C731.42,528.45,727.14,527.89,723.07,527.35Z" transform="translate(-71.64 -31)"/><path class="e" d="M696.1,315.95c.53.5,1.22,1.11,1.85,1.78a315.37,315.37,0,0,1,24.28,29c2.14,2.91,2.15,3.05-.72,5-12.15,8.43-24.34,16.76-36.45,25.22-1.91,1.34-3.1,1.31-4.52-.64a228.15,228.15,0,0,0-18.92-22.67c-1.6-1.7-1.68-2.93,0-4.63,10.56-10.54,21.05-21.17,31.58-31.75C693.93,316.59,694.56,315.57,696.1,315.95Z" transform="translate(-71.64 -31)"/><path class="e" d="M337.34,621.92c.48.55,1,1.1,1.48,1.71a247.93,247.93,0,0,0,19.28,23c1.55,1.64,1.3,2.74-.18,4.22-10.56,10.55-21,21.19-31.6,31.75-2.22,2.22-2.51,2.16-4.79-.25A312.54,312.54,0,0,1,297,652.95c-1.92-2.61-1.89-2.73.89-4.66q18-12.5,36.13-24.92C334.93,622.71,335.85,621.75,337.34,621.92Z" transform="translate(-71.64 -31)"/><path class="e" d="M763.12,566.34c-1,3.71-2,7.44-3.12,11.12-.95,3-1.24,3.2-4.32,2.22-8.95-2.85-17.86-5.8-26.78-8.73-4.83-1.58-9.64-3.2-14.46-4.81-3.67-1.22-3.86-1.35-2.82-4.82A230.93,230.93,0,0,0,718.08,533c.45-2.75.85-3,4.24-2.6,6.72.84,13.43,1.78,20.18,2.72,7.78,1.07,15.56,2.12,23.33,3.29,3.25.48,3.32.61,2.86,3.79A204.77,204.77,0,0,1,763.12,566.34Z" transform="translate(-71.64 -31)"/><path class="e" d="M736.87,630.7c-3.26,5.12-6.72,11-10.48,16.57-3.44,5.1-7.2,10-10.9,14.92-2.31,3.07-2.61,3.12-5.42.82q-16.79-13.76-33.51-27.61c-2.86-2.37-2.93-2.53-.59-5.58q8.47-11.29,15.81-23.31c1.89-3.11,2-3.07,5-1.44q19,10.42,38,21C736.29,626.83,738.63,627.43,736.87,630.7Z" transform="translate(-71.64 -31)"/><path class="b" d="M726.13,353.11a3.35,3.35,0,0,1,1.64,1.58A305.65,305.65,0,0,1,747,388.85c1.32,2.77,1.17,3.06-2.36,4.63q-17.88,8-35.8,16c-1.4.63-2.86,1.17-4.18,1.92-2.16,1.22-3.32.39-4.3-1.64A221.21,221.21,0,0,0,685.85,384c-1.33-2-.93-3.18,1-4.48,12.19-8.32,24.32-16.74,36.48-25.1A4.41,4.41,0,0,1,726.13,353.11Z" transform="translate(-71.64 -31)"/><path d="M636.75,729.21a281.71,281.71,0,0,1-39,17.65c-2.15.79-2.65-.29-3.22-1.92-2.47-7.43-5-14.85-7.55-22.27-2.28-6.69-4.58-13.39-6.81-20.12-1.06-3.17-1.05-3.29,1.84-4.4a263.22,263.22,0,0,0,26.94-12c1.61-.83,2.87-1.49,4.11.75C620.78,700.85,628.65,714.76,636.75,729.21Z" transform="translate(-71.64 -31)"/><path class="g" d="M362.82,651.66c.66.53,1.41,1.06,2.08,1.68a265.51,265.51,0,0,0,21.7,17.93c3.12,2.31,3.11,2.58.82,6q-12,17.79-24.1,35.51c-2.1,3.06-2.35,3.08-5.4.85a303,303,0,0,1-28.46-23.46c-3-2.86-3.1-3.05-.35-5.82q15.26-15.43,30.56-30.79C360.48,652.64,361.22,651.54,362.82,651.66Z" transform="translate(-71.64 -31)"/><path d="M347.59,364.4l-25.33-20.83c-3.8-3.12-7.6-6.25-11.36-9.43-2.41-2-2.43-2.13-.52-4.3A336.72,336.72,0,0,1,338,302.08c2.21-2,2.32-2,4.31.4,9.6,11.43,19.14,22.89,28.77,34.3,1.42,1.67,1.87,2.79-.11,4.52a241.72,241.72,0,0,0-21.79,21.88A13.2,13.2,0,0,1,347.59,364.4Z" transform="translate(-71.64 -31)"/><path d="M477.75,291.24a20.45,20.45,0,0,1-2.1.59,272.24,272.24,0,0,0-29.16,7c-3.07,1-3.17.83-4.2-2.22q-7.24-21.15-14.37-42.39c-.95-2.82-.89-2.91,2-3.79A348.76,348.76,0,0,1,468,241.27c1.69-.31,3-.31,3.26,1.92q3.24,23.75,6.59,47.49A2.17,2.17,0,0,1,477.75,291.24Z" transform="translate(-71.64 -31)"/><path class="d" d="M434.17,750.81a195.24,195.24,0,0,1-23.47-8.26c-4.33-1.79-4.36-1.94-2.43-6.41,3.89-9,7.88-18,11.81-27,1.66-3.81,3.21-7.65,4.93-11.42,1.57-3.44,2.06-3.54,5.64-2.14A224.09,224.09,0,0,0,456,704c4.6,1.19,4.68,1.49,3.63,6.05L451,747.35c-.21.74-.41,1.48-.57,2.23-1.42,5.29-1.5,5.34-7,3.85C440.37,752.58,437.27,751.68,434.17,750.81Z" transform="translate(-71.64 -31)"/><path class="e" d="M423,694.61c-3.15,7.17-5.83,13.22-8.48,19.28-3.14,7.19-6.2,14.42-9.39,21.59-1.73,3.9-2.1,4-5.82,2.19A323.26,323.26,0,0,1,367.46,720c-3.61-2.28-3.66-2.41-1.23-6q12-17.78,24.12-35.52c2-3,2.16-3,5-1.24a263.06,263.06,0,0,0,25.07,13.78C422.66,692.1,423.76,693.3,423,694.61Z" transform="translate(-71.64 -31)"/><path class="g" d="M271.78,608.54c.72-1.17,2-1.51,3.07-2q9.68-4.36,19.39-8.66C300.72,595,307.44,592,314,589c3.57-1.58,3.69-1.58,5.31,1.73a264.38,264.38,0,0,0,14,25c1.73,2.75,1.67,3-.95,4.83q-18,12.51-36.13,24.9c-2.91,2-3.26,1.88-5.12-.94a297.82,297.82,0,0,1-18.76-33.38A4,4,0,0,1,271.78,608.54Z" transform="translate(-71.64 -31)"/><g class="i"><path class="j" d="M510.25,61.64C268,61.64,71.64,258,71.64,500.25S268,938.86,510.25,938.86,948.86,742.49,948.86,500.25,752.49,61.64,510.25,61.64Zm0,761.52c-178.34,0-322.9-144.56-322.9-322.9s144.56-322.9,322.9-322.9,322.9,144.56,322.9,322.9S688.59,823.15,510.25,823.15Z" transform="translate(-71.64 -31)"/></g><g class="k"><path class="l" d="M510.25,61.64C268,61.64,71.64,258,71.64,500.25S268,938.86,510.25,938.86,948.86,742.49,948.86,500.25,752.49,61.64,510.25,61.64Zm0,761.52c-178.34,0-322.9-144.56-322.9-322.9s144.56-322.9,322.9-322.9,322.9,144.56,322.9,322.9S688.59,823.15,510.25,823.15Z" transform="translate(-71.64 -31)"/></g><path class="m" d="M510.25,178.32c-177.8,0-321.93,144.13-321.93,321.93S332.45,822.18,510.25,822.18,832.18,678.05,832.18,500.25,688.05,178.32,510.25,178.32Zm0,530.58C395,708.9,301.6,615.49,301.6,500.25S395,291.6,510.25,291.6,718.9,385,718.9,500.25,625.49,708.9,510.25,708.9Z" transform="translate(-71.64 -31)"/><g class="n"><g class="o"><path class="p" d="M510.25,293.3c-114.3,0-206.95,92.65-206.95,206.95S396,707.2,510.25,707.2,717.2,614.55,717.2,500.25,624.55,293.3,510.25,293.3Zm0,296.53a89.58,89.58,0,1,1,89.58-89.58A89.58,89.58,0,0,1,510.25,589.83Z" transform="translate(-71.64 -31)"/></g></g><line class="q" x1="393.69" y1="391.83" x2="191.69" y2="29.83"/><path class="r" d="M292.33,82s82.19-50,215.75-50c104.12,0,180.77,32.82,209.5,47.28" transform="translate(-71.64 -31)"/><polygon points="658.36 55 636.98 52.82 644.97 47.86 644.62 38.47 658.36 55"/></svg>