<?xml version="1.0" encoding="utf-8"?>
<!-- Generator: Adobe Illustrator 21.1.0, SVG Export Plug-In . SVG Version: 6.00 Build 0)  -->
<svg version="1.1" xmlns="http://www.w3.org/2000/svg" xmlns:xlink="http://www.w3.org/1999/xlink" x="0px" y="0px"
	 viewBox="0 0 2304 1264" style="enable-background:new 0 0 2304 1264;" xml:space="preserve">
<style type="text/css">
	.st0{fill:#6F6F6F;}
	.st1{fill:#4B4B4B;}
	.st2{fill:#919191;}
	.st3{font-family:'MyriadPro-Regular';}
	.st4{font-size:96.0795px;}
	.st5{fill:none;stroke:#000000;stroke-width:7;stroke-miterlimit:10;}
	.st6{font-size:39.927px;}
	.st7{font-size:65.725px;}
	.st8{font-family:'Augustus';}
	.st9{font-size:433.9332px;}
	.st10{font-size:633.2665px;}
	.st11{font-family:'Roboto-Regular';}
	.st12{font-size:146.0455px;}
	.st13{fill:#FFFFFF;}
</style>
<g id="Disk">
	<title>SampleDisk</title>
	<path class="st0" d="M1737,560.7c19.9-59.3,39.8-118.6,59.7-177.9c7.3-21.8,8.5-22.7,30.6-14.5c64.1,23.7,127.5,49,189.1,78.5
		c24.7,11.8,49.2,23.8,73.5,36.1c16.7,8.5,17.1,9.6,8.3,25.9c-31.6,58.9-63.4,117.7-95.3,176.5c-8.6,16.2-9.3,16.4-26.2,7.8
		c-58.9-30.2-119.2-57.3-180.9-81.4c-16.1-6.3-32.4-12-48.4-18.4c-18.7-7.5-18.7-7.7-13-26.6c0.6-2.1,1.3-4.1,2-6.2L1737,560.7z"/>
	<path class="st1" d="M1420.2,501.5c-1.3,10.9-10.4,8.3-19.2,7.1c-64.8-8.8-129.9-14.4-195.2-16.6c-19.4-0.6-38.8-0.7-58.2-1.2
		c-17.7-0.5-18-0.6-18.4-17.9c-1-57.5-1.9-115-2.7-172.5c-0.2-10.8-0.5-21.5-0.4-32.4c0.2-15.4,0.6-16.3,15.6-16
		c36.6,0.6,73.3,1.5,109.9,3c60.4,2.5,120.5,9.1,180.3,16.6c3.6,0.4,7.1,1.4,10.6,1.8c9.3,1,11.8,6.4,10.6,14.9
		c-2.3,15.6-4.4,31.3-6.8,46.9c-8.2,53.3-16.6,106.5-25.2,159.7L1420.2,501.5z"/>
	<path d="M762.1,289.4c3.3-0.3,6.3,1.8,7.1,5c0.9,3.5,1.7,7,2.2,10.5c12.5,67.1,25,134.1,37.5,201.2c3,15.9,2.8,16.3-12.9,19.6
		c-84.4,17.6-167.7,40.7-249.1,69.1c-14,4.7-14.3,4.6-19.6-9.5c-24.1-64.6-48-129.3-71.9-194.1c-5.4-14.8-5.3-15.2,8.5-20
		c94.2-33.1,190.5-59.7,288.3-79.8C755.9,290.3,759.5,289.8,762.1,289.4z"/>
	<path d="M1106.3,252.8c6.6,2.2,4.9,8.2,5.1,12.7c0.6,20.1,0.6,40.2,0.8,60.3c0.8,49.5,1.7,99.1,2.4,148.6
		c0.2,16-0.1,16.3-16.3,16.8c-86.1,3.2-172,11.8-257,26c-14.5,2.4-14.8,2.1-17.7-13c-12.8-67.8-25.4-135.6-38-203.4
		c-2.8-15.2-2.6-15.7,12.1-18.2c98.5-16.9,198-26.9,297.8-30.1C1099,252.5,1102.6,252.8,1106.3,252.8z"/>
	<path class="st1" d="M1645.1,315.1c37.5,10,75,20,112.4,30c4.9,1.3,9.7,2.6,14.4,4.4c17.6,6.3,18.4,7.2,12.9,24.6
		c-7.4,23.5-15.3,46.4-23.1,69.5c-13.6,40.1-27.3,80.2-40.7,120.5c-5.9,17.7-6.9,18.5-24.6,12.7c-78.6-25.4-159-45.1-240.4-59
		c-2.8-0.5-5.6-1.5-8.4-1.7c-10.5-1.3-14.5-6.1-12.6-17.5c6.7-39.7,12.5-79.4,18.7-119.2c4.5-28.5,8.6-56.8,13.6-85.1
		c2.9-16.2,3.7-16.4,20-13.7C1540.4,289.4,1593.1,300.8,1645.1,315.1z"/>
	<path class="st1" d="M1587.4,577.2c34.2,8.4,67.9,18.7,101.4,29.8c14.3,4.7,15.2,5.6,10.5,20c-12.2,37.6-25.2,74.9-37.9,112.4
		c-9.2,27.2-18.1,54.5-27.2,81.7c-5.2,15.6-5.7,16.2-21.5,11.6c-46.9-13.7-94-27-141.8-37.4c-19.7-4.3-39.5-7.6-59.2-11.8
		c-19.7-4.2-20-4.5-17.4-23.7c4-28.6,8.6-57,13-85.3c6-38.3,12.1-76.7,18.3-115c2.4-14.9,3.2-15.3,18.3-12.8
		C1492.2,554.8,1539.7,566.4,1587.4,577.2z"/>
	<path class="st1" d="M1103.8,522.6c8.7,0.7,10.8,3.3,11.1,7.2s0.5,8.6,0.6,12.9c1,66.2,2.1,132.3,3.1,198.3
		c0.3,19.1,0.1,19.5-18.2,20.4c-69.6,3.2-139,10.2-207.9,20.7c-16.1,2.5-16.6,2.2-19.6-13.7c-12.8-67-25.3-134-37.6-201.2
		c-3-16.1-2.7-16.7,11.4-19.1c83.6-14.2,168.1-22.8,252.9-25.7C1102.5,522.4,1105.3,522.7,1103.8,522.6z"/>
	<path class="st2" d="M1380.6,754c-4.7,22.6-4.7,23.1-23.6,20.7c-67.6-8.6-135.7-13.3-203.9-14.1c-17.9-0.2-19.4-1.7-19.8-20.1
		c-1.3-66.8-2.3-133.6-3.1-200.4c-0.2-16.8,0.9-18.2,16.3-18.1c83.3,0.2,166.6,5.9,249.1,17.2c15.2,2.1,17.2,4.6,14.9,19.8
		c-7.4,50.4-15.3,100.8-23.1,151.1L1380.6,754z"/>
	<path class="st1" d="M1682.8,721.7c8-24.1,18.8-56.9,29.8-89.5c5.1-15.1,6.7-15.7,21.6-10.4c77.8,27.7,153.6,60.6,227,98.4
		c17.5,8.9,17.8,9.8,8.3,27.6C1938.3,806,1907,864,1875.6,922c-9.4,17.4-9.7,17.6-27.7,8.4c-60-30.9-122-57.8-185.5-80.5
		c-19.7-7-20.2-7.9-13.7-28C1658.9,791.4,1669.5,761,1682.8,721.7z"/>
	<path d="M610.8,853.9c-0.8,6.3-5.7,7-9.4,8.4c-19.9,8.4-39.9,16.4-59.7,24.9c-46.3,19.8-91.2,42.5-135.4,66.5
		c-14,7.6-14.4,7.5-22.6-6.7c-34.3-59.1-68.5-118.2-102.6-177.3c-8.5-14.7-8.2-14.9,7.4-23.4c71.7-39.7,145.9-74.6,222.2-104.7
		c2.7-1.1,5.4-1.9,8-3.1c7.1-3.4,12.4-2.6,14.7,5.9c0.6,2.1,1.6,4,2.3,6l71,192C608.3,846.4,609.7,850.5,610.8,853.9z"/>
	<text transform="matrix(1 0 0 1 49.7487 209.0182)" class="st3 st4">Calibration fields</text>
	<line class="st5" x1="734.2" y1="50.8" x2="926.2" y2="1118.9"/>
	<line class="st5" x1="1114.2" y1="14.3" x2="1130.1" y2="1099.4"/>
	<text transform="matrix(1 0 0 1 800.749 136.0181)" class="st3 st6">Disk ID 1st digit</text>
	<text transform="matrix(1 0 0 1 931.749 863.0181)"><tspan x="0" y="0" class="st3 st6">Disk ID</tspan><tspan x="0" y="47.9" class="st3 st6">2nd digit</tspan></text>
	<text transform="matrix(1 0 0 1 1539.3059 147.1148)" class="st3 st4">Beats per minute</text>
	<line class="st5" x1="1425" y1="524" x2="1331.3" y2="1104.7"/>
	<text transform="matrix(1 0 0 1 1151.749 846.0041)" class="st3 st6">Base octave</text>
	<text transform="matrix(1 0 0 1 1506.9956 1021.4885)" class="st3 st7">Buffer</text>
	<text transform="matrix(-0.3001 0.9539 -0.9539 -0.3001 1508.5854 808.5255)" class="st8 st9">}</text>
	<text transform="matrix(0.2624 -0.9649 0.9649 0.2624 1828.2006 387.7378)" class="st8 st10">}</text>
	<text transform="matrix(-0.3331 -0.9429 0.9429 -0.3331 515.4633 337.2789)" class="st8 st9">}</text>
	<text transform="matrix(1 0 0 1 1236 424.5635)" class="st11 st12">1</text>
	<text transform="matrix(1 0 0 1 1566 471.5635)" class="st11 st12">1</text>
	<text transform="matrix(1 0 0 1 1878 571.5635)" class="st11 st12">3</text>
	<text transform="matrix(1 0 0 1 1209 683.5635)" class="st11 st12">4</text>
	<text transform="matrix(1 0 0 1 1526 739.5635)" class="st11 st12">1</text>
	<text transform="matrix(1 0 0 1 1768 823.5635)" class="st11 st12">1</text>
	<text transform="matrix(1 0 0 1 962 687.5635)" class="st11 st12">1</text>
	<text transform="matrix(1 0 0 1 930 431.5635)" class="st13 st11 st12">0</text>
	<text transform="matrix(1 0 0 1 602 487.5635)" class="st13 st11 st12">0</text>
	<text transform="matrix(1 0 0 1 410 847.5635)" class="st13 st11 st12">0</text>
	<text transform="matrix(1 0 0 1 686 755.5635)" class="st11 st12">1</text>
	<text transform="matrix(1 0 0 1 338 591.5635)" class="st11 st12">1</text>
</g>
<g id="Layer_2">
</g>
</svg>
