<svg xmlns="http://www.w3.org/2000/svg" viewBox="0 0 992.44 991.92"><defs><style>.a{fill:#6f6f6f;}.b{fill:#4b4b4b;}.c{fill:#919191;}.d{fill:#5f5f5f;}.e{fill:#c3c3c3;}.f{fill:gray;}.g{fill:#a7a7a7;}</style></defs><title>SampleDisk</title><path class="a" d="M512,717.81c0,8.08.05,16.16,0,24.23,0,4.45-.45,4.78-4.95,4.56a255.26,255.26,0,0,1-76.12-15.18c-4.75-1.75-4.82-1.79-3-6.27q9.33-22.64,18.76-45.24c1.66-4,1.8-4.07,5.82-2.64a190.15,190.15,0,0,0,42.46,9.9c3.48.39,7,.53,10.5.76,6.38.42,6.49.5,6.52,6.71C512,702.36,512,710.08,512,717.81Z" transform="translate(-17.24 -18.34)"/><path class="b" d="M717.51,515.21c7.9,0,15.79,0,23.69,0,5.26,0,5.38.11,5.18,5.3a241.6,241.6,0,0,1-6.24,46.32,280.38,280.38,0,0,1-8.85,29.73c-1.57,4.41-1.73,4.49-5.93,2.76q-22.87-9.42-45.7-18.93c-3.85-1.6-3.93-1.71-2.46-5.76a192.29,192.29,0,0,0,11-55c.24-4.3.31-4.39,4.59-4.42C701,515.16,709.27,515.21,717.51,515.21Z" transform="translate(-17.24 -18.34)"/><path class="a" d="M605.77,727.43a1.94,1.94,0,0,1-1.94-1.07c-.48-.94-.94-1.88-1.35-2.85q-9.29-22.38-18.54-44.77c-1.76-4.28-1.74-4.39,2.32-6.31a189.09,189.09,0,0,0,45.87-30.54c3.77-3.4,3.89-3.34,7.55.31q17,16.92,33.9,33.9c3.53,3.54,3.53,3.62-.08,6.94a251.64,251.64,0,0,1-64.54,43.15C607.84,726.69,606.67,727.07,605.77,727.43Z" transform="translate(-17.24 -18.34)"/><path class="a" d="M727.33,605.87c-.37.95-.77,2.11-1.28,3.21a249.78,249.78,0,0,1-42.77,64.13c-3.49,3.81-3.68,3.83-7.39.14q-17-16.91-33.89-33.88c-3.47-3.48-3.51-3.57-.37-7a190.83,190.83,0,0,0,30.63-45.78c2.14-4.47,2.24-4.48,6.54-2.7q22.39,9.24,44.74,18.55C725.06,603.12,727.1,603.33,727.33,605.87Z" transform="translate(-17.24 -18.34)"/><path d="M515.43,717.33c0-7.72-.06-15.45,0-23.17.06-5.75-1.32-5.79,6-6.18,6.14-.32,12.22-1,18.3-1.91a177.42,177.42,0,0,0,34.11-8.62c4.91-1.74,4.93-1.68,7,3.33q9.38,22.6,18.74,45.2c1.45,3.51,1.42,3.66-2,4.92a254.1,254.1,0,0,1-48.23,12.69c-9.2,1.42-18.45,2.25-27.72,2.91-.88.06-1.75.15-2.63.15-3.4,0-3.56,0-3.59-3.53C515.39,734.54,515.43,725.94,515.43,717.33Z" transform="translate(-17.24 -18.34)"/><path class="c" d="M421.23,727.39c-1-.44-2.18-.87-3.29-1.38a249.73,249.73,0,0,1-64.1-42.77c-3.46-3.17-3.53-3.74-.19-7.11Q370.73,659,387.9,641.88c3.28-3.26,3.54-3.31,6.87-.26a188,188,0,0,0,45.73,30.67c4.49,2.16,4.51,2.3,2.69,6.72q-9.12,22.14-18.35,44.24C424.13,724.91,423.89,727.15,421.23,727.39Z" transform="translate(-17.24 -18.34)"/><path d="M388,636.37c-.39.47-.89,1.17-1.49,1.78Q368.13,656.59,349.7,675c-1.68,1.7-2.89,1.44-4.3-.19-4-4.63-8.32-9.07-12.14-13.87a253.75,253.75,0,0,1-32.37-52.23c-2-4.25-2-4.28,2.22-6q23.09-9.6,46.2-19.13c3.33-1.38,3.46-1.37,5,1.93a186.38,186.38,0,0,0,22.26,36.27c3.16,4,6.58,7.77,9.85,11.67C387.08,634.23,388.09,634.82,388,636.37Z" transform="translate(-17.24 -18.34)"/><path d="M298.24,426.42l9.52,3.94q19.93,8.24,39.86,16.49c3.64,1.51,3.71,1.61,2.41,5.28A198,198,0,0,0,340.08,494c-.56,4.55-.53,9.11-1,13.64-.43,4-.44,4.12-4.31,4.13q-25,.05-50,0c-4.36,0-4.41-.09-4.2-4.46A255.74,255.74,0,0,1,296,430.27,7.54,7.54,0,0,1,298.24,426.42Z" transform="translate(-17.24 -18.34)"/><path class="d" d="M727.31,421.24a2.2,2.2,0,0,1-1.39,2.34c-1,.45-1.91.89-2.88,1.29Q701.14,434,679.23,443c-4.8,2-4.88,2-7.1-2.66a188.57,188.57,0,0,0-30.71-45.76c-3-3.3-3-3.41.29-6.66q17.3-17.35,34.65-34.65c3.15-3.14,3.27-3.16,6.15-.05a247.15,247.15,0,0,1,39.15,55.91c1.6,3.13,3.1,6.3,4.61,9.47C726.73,419.55,727,420.56,727.31,421.24Z" transform="translate(-17.24 -18.34)"/><path d="M483.6,72.23c.17,3.25.82,4.06-3.76,4.46a478,478,0,0,0-51,7c-4,.77-7.95,1.43-11.84,2.46-2.53.67-3.36-.1-3.92-2.53-3.39-14.69-6.93-29.34-10.42-44a48.13,48.13,0,0,0-1.48-6.13c-1.12-2.91.4-3.74,2.77-4.23,14.42-3,28.87-5.83,43.49-7.67,8.18-1,16.37-1.87,24.57-2.78,1.57-.17,3.15-.21,4.71-.43,2.67-.37,3.83.6,3.87,3.42.06,4.38.45,8.75.72,13.13Q482.42,53.59,483.6,72.23Z" transform="translate(-17.24 -18.34)"/><path class="e" d="M504.94,994.29c.28-12.27,1.25-24.51,1.08-36.8-.06-4.46.42-4.64,4.67-5.35,7.67-1.28,15.41-.63,23.11-.86,10.87-.32,21.67-1.49,32.47-2.7,1.92-.21,3.83-.44,5.75-.58,4.32-.31,4.79,0,5.45,4.29,1.85,12,3.59,23.93,5.38,35.89.55,3.64,1.12,7.28,1.68,10.92.75,4.93.16,5.94-4.84,6.62-6.95.94-13.91,1.86-20.9,2.32-15.38,1-30.76,2.25-46.2,2.22-7.66,0-7.66,0-7.66-7.54Q504.94,998.5,504.94,994.29Z" transform="translate(-17.24 -18.34)"/><path d="M47.53,525.74c8.06-.52,16.13-.53,24.18-1.09,3.54-.24,3.86,0,4,3.75a437.79,437.79,0,0,0,4.38,48.69c.66,4.68,1.5,9.34,2.19,14,.59,4,.55,4.08-3.26,4.82q-19.61,3.79-39.23,7.54c-3.61.69-7.24,1.34-10.83,2.11-2.41.51-3.39-.31-3.83-2.8-2.63-15-4.72-30.13-6-45.33-.76-8.91-1.19-17.84-1.74-26.76-.28-4.53-.25-4.78,4.42-4.89C30.35,525.6,38.94,525.74,47.53,525.74Z" transform="translate(-17.24 -18.34)"/><path class="a" d="M580.68,949.22c-.34-2.27,1.6-2.79,3.87-3.22,8.1-1.54,16.2-3.11,24.27-4.8,12-2.52,23.87-5.84,35.63-9.41,4.6-1.39,4.66-1.34,6.22,3.37q7.54,22.75,15,45.51c.06.17.11.33.17.5,1.39,4.59,1.4,4.6-3.44,6.09-3.86,1.18-7.72,2.36-11.61,3.46a537.79,537.79,0,0,1-57,12.88c-4.64.79-5,.51-5.71-4.25q-3.56-23.42-7.09-46.84C580.9,951.64,580.84,950.76,580.68,949.22Z" transform="translate(-17.24 -18.34)"/><path d="M646.92,35.92c-4.32,15.27-8.61,30.44-12.9,45.61-.62,2.19-1.28,4.38-1.79,6.59-.59,2.58-1.79,3.18-4.5,2.5-9.68-2.46-19.4-4.77-29.17-6.8-10.81-2.25-21.74-3.89-32.69-5.3-4.13-.53-4.22-.56-3.81-4.41q2.61-24.85,5.31-49.68c.45-4.14.62-4.36,4.41-3.89A500.11,500.11,0,0,1,645.46,35,9.14,9.14,0,0,1,646.92,35.92Z" transform="translate(-17.24 -18.34)"/><path class="a" d="M818.9,904.48c-1.37-.22-2-1.4-2.68-2.34q-6.48-8.31-12.9-16.66-8.7-11.25-17.38-22.51c-2.81-3.66-2.83-3.73.65-6.57,11.85-9.66,23.36-19.69,34.2-30.46,4-4,8-7.91,11.83-12,1.86-2,3.3-2,5.27-.15q18.75,17.35,37.64,34.55c2.16,2,1.76,3.28,0,5.16A535.54,535.54,0,0,1,821.62,903,5,5,0,0,1,818.9,904.48Z" transform="translate(-17.24 -18.34)"/><path d="M942,617.25c6.92,1.67,13.91,3.36,20.9,5,9.89,2.36,19.8,4.66,29.67,7.06,3.53.86,3.57,1,2.68,4.53a521.5,521.5,0,0,1-22.81,69.39c-1.41,3.48-1.52,3.51-4.91,2.07q-23.24-9.87-46.44-19.83c-3.57-1.53-3.62-1.64-2.12-5.41a482.18,482.18,0,0,0,19.52-59.42C939.41,617,939.56,617,942,617.25Z" transform="translate(-17.24 -18.34)"/><path class="a" d="M957.49,543.65q22.87,1.44,45.73,2.88c5.59.34,5.9.57,5.36,6.3-1.56,16.61-3.53,33.17-6.61,49.57-1.23,6.56-2.51,13.1-3.89,19.63-.95,4.48-1.19,4.63-5.59,3.59q-23.83-5.62-47.64-11.35c-4.36-1-4.46-1.15-3.48-5.69a479.94,479.94,0,0,0,7.8-47.8c.47-4.19.79-8.39,1.3-12.57.6-4.89.65-4.89,5.46-4.75.53,0,1.05.05,1.58.08Z" transform="translate(-17.24 -18.34)"/><path d="M76.79,446.47c-10.31-1.53-21.06-3.11-31.81-4.71-5.89-.88-11.78-1.81-17.67-2.7-4.48-.68-4.64-.82-3.86-5.3,2.92-16.57,6.3-33.05,10.78-49.28,2-7.09,4.06-14.15,6-21.23.69-2.48,1.72-3.25,4.5-2.31Q69.17,369.19,93.71,377c2.89.93,2.73,2.47,2,4.73a430.88,430.88,0,0,0-11.85,46.32c-1,5.16-1.87,10.35-2.86,15.51C80.44,446.57,80.26,446.66,76.79,446.47Z" transform="translate(-17.24 -18.34)"/><path class="a" d="M167.15,243.42c-.64-.42-1.39-.86-2.08-1.39q-20.22-15.61-40.4-31.27c-2.75-2.14-2.71-2.35-.25-5.48,7-9,14.51-17.63,22.21-26,8.54-9.32,17.3-18.44,26.56-27,3.17-2.95,3.2-2.94,6.15.25q16.42,17.82,32.81,35.65c.36.39.68.81,1.07,1.17,1.88,1.74,2.27,3.46,0,5.23-.55.43-1,1-1.5,1.48a475.63,475.63,0,0,0-41,44.57C169.84,241.69,169.21,243.36,167.15,243.42Z" transform="translate(-17.24 -18.34)"/><path class="b" d="M951.5,465.18c-2.66.37-2.61-1.92-2.89-4.07A473,473,0,0,0,940.22,414c-1.07-4.62-2.27-9.2-3.38-13.81-1-4.21-1-4.29,3.07-5.47q20.25-5.8,40.52-11.51c2.53-.72,5.05-1.48,7.61-2.13,3.65-.92,3.87-.89,4.76,2.68,2.16,8.68,4.27,17.38,6.22,26.12,3.22,14.4,5.44,29,7.45,43.58.12.87.11,1.76.24,2.62.36,2.26-.77,3.2-2.86,3.44-3.83.43-7.66.94-11.49,1.36Q972.73,463,953.1,465Z" transform="translate(-17.24 -18.34)"/><path class="d" d="M81.1,599.15c2-.25,2.81.86,3.2,2.66,1.17,5.31,2.37,10.63,3.67,15.91q5.43,22,13,43.39c2,5.57,1.92,5.62-3.32,7.61q-22.17,8.4-44.36,16.75c-4.88,1.83-4.93,1.8-6.7-3.19a540.87,540.87,0,0,1-19.09-67.36c-.18-.86-.26-1.74-.49-2.59-.47-1.73.25-2.71,1.89-3.09s3.1-.62,4.65-.92l45-8.75C79.36,599.4,80.23,599.29,81.1,599.15Z" transform="translate(-17.24 -18.34)"/><path d="M960.06,296.52a1.64,1.64,0,0,1-.74,2,24.14,24.14,0,0,1-2.34,1.19q-22.55,10.77-45.11,21.52c-3.57,1.7-3.68,1.68-5.43-1.8a490.45,490.45,0,0,0-32-54.43c-2-3-2-3.09,1-5.23q20.6-14.63,41.26-29.19c3.14-2.21,3.25-2.2,5.26.74a539.29,539.29,0,0,1,37,63C959.45,295.13,959.79,295.94,960.06,296.52Z" transform="translate(-17.24 -18.34)"/><path class="b" d="M744.13,952.22c-.19,1.48-1.47,1.87-2.52,2.41-4.54,2.3-9.07,4.64-13.68,6.81a552.16,552.16,0,0,1-51.61,21.25c-.83.29-1.67.54-2.49.87-2,.8-3.41.39-4.06-1.81-.2-.67-.41-1.34-.63-2q-7.43-22.51-14.86-45c-.38-1.17-.7-2.36-1.08-3.52a1.85,1.85,0,0,1,1.18-2.53c1.13-.48,2.28-.92,3.44-1.32A458.34,458.34,0,0,0,713,903.77c.94-.48,1.91-.9,2.85-1.37a1.79,1.79,0,0,1,2.62.87c.53.91,1,1.84,1.53,2.77q11.25,21.17,22.48,42.35C743.14,949.6,744,950.75,744.13,952.22Z" transform="translate(-17.24 -18.34)"/><path d="M232.56,850.06c5.05,4,10,7.89,15,11.7a464.66,464.66,0,0,0,39.11,26.73c3.73,2.28,3.76,1.92,1.39,5.95Q275.51,915.77,263,937.12c-2.23,3.79-2.29,3.81-5.8,1.67a529.41,529.41,0,0,1-58.87-41.61c-3.39-2.75-3.38-2.82-.71-6q16.1-19.15,32.24-38.27C230.64,852,231.52,851.14,232.56,850.06Z" transform="translate(-17.24 -18.34)"/><path d="M501.47,980.49c0,8.42.08,16.83,0,25.25-.06,4.18-.33,4.33-4.1,4.17a546.29,546.29,0,0,1-70.54-7.43c-5.74-1-5.7-1.06-4.54-7q4.49-23.21,8.93-46.44c.9-4.67.91-4.77,5.72-4a453.79,453.79,0,0,0,61.66,6.44c4,.13,4,.26,4,4.31q0,12.35,0,24.71Z" transform="translate(-17.24 -18.34)"/><path class="a" d="M428.07,946.6c-1,5.16-2,10.32-3,15.49-2.17,11.19-4.31,22.39-6.49,33.58-1,5.06-1,5.12-6.23,4a536.71,536.71,0,0,1-67.8-19.22c-4.41-1.57-4.5-1.73-2.9-6q8.56-22.93,17.26-45.8c1.59-4.19,1.77-4.28,6.21-2.72a498.76,498.76,0,0,0,58.7,16.62C426,943,428.61,943.13,428.07,946.6Z" transform="translate(-17.24 -18.34)"/><path d="M177.41,795.34a14.58,14.58,0,0,0-2.23,1.31q-19.76,16.6-39.49,33.24c-2.8,2.35-2.91,2.36-5.26-.52a523.38,523.38,0,0,1-42.24-59.71c-1.89-3.1-1.86-3.21,1.37-5.1q21.78-12.83,43.59-25.58c3.27-1.91,3.39-1.9,5.21,1.07a483.12,483.12,0,0,0,37.45,52.79C176.24,793.38,176.56,794,177.41,795.34Z" transform="translate(-17.24 -18.34)"/><path d="M990.38,375.43c-.09,1.7-1.62,1.68-2.67,2-4.7,1.41-9.45,2.67-14.18,4-11.64,3.31-23.27,6.65-34.92,9.93-3.77,1.06-3.86,1-5-2.78a492.29,492.29,0,0,0-22.33-59c-1.48-3.26-1.43-3.35,1.94-5q22.78-10.93,45.6-21.78c3.41-1.62,3.53-1.6,5.05,1.7a529.28,529.28,0,0,1,25.87,68.37C990,373.7,990.16,374.56,990.38,375.43Z" transform="translate(-17.24 -18.34)"/><path d="M119.48,212a7.29,7.29,0,0,1,3.33,1.92q19.8,15.28,39.57,30.6c3.22,2.5,3.25,2.59,1,5.59a482.38,482.38,0,0,0-34.21,53.05c-1.84,3.31-1.93,3.31-5.56,1.39q-21.86-11.58-43.69-23.21c-4.07-2.17-4.09-2.22-1.89-6.18a523.86,523.86,0,0,1,34.78-54.57C115,217.62,116.86,214.42,119.48,212Z" transform="translate(-17.24 -18.34)"/><path class="d" d="M273.65,145.61c-.16,1.57-1.21,2-2,2.59-4.6,3.23-9.26,6.37-13.82,9.66q-18.41,13.24-35.4,28.26c-4,3.51-3.59,4-7.76-.55Q199,168.48,183.24,151.42c-.48-.52-1-1-1.42-1.55-2.77-3.18-2.8-3.23.54-6.16,4.09-3.6,8.19-7.18,12.38-10.66a529.4,529.4,0,0,1,42.54-31.94c.87-.59,1.79-1.13,2.62-1.77,1.9-1.48,3.29-1.38,4.7.83,9.27,14.51,18.63,29,28,43.42C273,144.3,273.38,145.09,273.65,145.61Z" transform="translate(-17.24 -18.34)"/><path d="M730.08,66.85c1,.47,2,.87,2.92,1.34a536.75,536.75,0,0,1,62.12,36.49c3.58,2.45,3.6,2.51,1.17,6q-14.4,20.44-28.87,40.83c-2.26,3.19-2.34,3.2-5.62,1a487.41,487.41,0,0,0-54-31.66c-3.69-1.86-3.69-1.94-1.85-5.79q10.63-22.32,21.33-44.62C727.94,69,728.21,67.3,730.08,66.85Z" transform="translate(-17.24 -18.34)"/><path class="f" d="M779.56,862.19c1.88.22,2.48,1.63,3.31,2.7q8.74,11.22,17.42,22.49c4.3,5.56,8.62,11.09,12.87,16.69,2.56,3.37,2.57,3.52-.53,5.84A513.35,513.35,0,0,1,752,949c-3.65,2-4.15,1.83-6.13-1.87q-11.68-21.83-23.21-43.74c-1.84-3.49-1.82-3.64,1.76-5.65A483.28,483.28,0,0,0,776.64,864C777.61,863.33,778.68,862.75,779.56,862.19Z" transform="translate(-17.24 -18.34)"/><path class="b" d="M880,847.35c-.57-.43-1.3-.91-1.93-1.49-12.67-11.62-25.28-23.31-38-34.85-2.22-2-1.6-3.31,0-5.15a443.53,443.53,0,0,0,29.29-36.53c3.27-4.56,6.51-9.15,9.6-13.84,1.34-2,2.49-2.48,4.64-1.08,14.4,9.39,28.88,18.66,43.3,28,2.88,1.87,2.84,2,.27,5.84a524.76,524.76,0,0,1-39.26,51.43c-1.84,2.12-3.68,4.24-5.55,6.33A2.81,2.81,0,0,1,880,847.35Z" transform="translate(-17.24 -18.34)"/><path class="b" d="M1009.66,506.47q0,14.21,0,28.42c0,1.23,0,2.46-.14,3.68-.37,4.55-.54,4.79-5,4.59-6-.27-11.9-.68-17.85-1.07-10.32-.67-20.64-1.38-31-2-4.54-.29-4.79-.46-4.54-5a422,422,0,0,0-1.24-60.44c-.06-.7,0-1.41-.13-2.1-.35-2.57.52-3.81,3.33-4.07,9.78-.91,19.53-2.06,29.3-3.1,7-.74,13.94-1.56,20.93-2.15,4-.34,4.1-.15,4.48,3.85A369.09,369.09,0,0,1,1009.66,506.47Z" transform="translate(-17.24 -18.34)"/><path class="a" d="M335,976.8c-.71-.25-1.71-.56-2.68-.95A526.86,526.86,0,0,1,267.83,945c-3.8-2.14-3.89-2.38-1.76-6q12.58-21.6,25.29-43.12c1.91-3.24,2.08-3.3,5.3-1.49a488,488,0,0,0,56.92,27.22c3.41,1.37,3.5,1.62,2.2,5.1q-8.85,23.65-17.84,47.26C337.48,975.19,337.26,976.82,335,976.8Z" transform="translate(-17.24 -18.34)"/><path class="a" d="M102.84,670.7c2,.17,2.24,1.74,2.77,3,3.49,8,6.88,16.14,10.46,24.14,4.95,11.05,10.63,21.74,16.51,32.32,2.07,3.72,2,3.81-1.71,6q-21.09,12.42-42.22,24.76c-4.17,2.43-4.29,2.37-6.75-2a525.35,525.35,0,0,1-30.38-63.57c-1.85-4.66-1.83-4.72,2.73-6.45q22.64-8.57,45.3-17.07C100.69,671.38,101.86,671,102.84,670.7Z" transform="translate(-17.24 -18.34)"/><path d="M278.3,143.76c-1.26.12-1.73-.65-2.21-1.37q-2.31-3.52-4.58-7.06-11.7-18.12-23.39-36.25c-2.3-3.58-2.28-3.65,1.4-5.93a527.15,527.15,0,0,1,63.59-33.77c3.84-1.71,3.91-1.69,5.63,2.31q9.84,23,19.6,45.94c1.48,3.5,1.46,3.63-1.78,5.08a480.21,480.21,0,0,0-56.16,29.84C279.66,143,278.89,143.42,278.3,143.76Z" transform="translate(-17.24 -18.34)"/><path class="b" d="M944.18,509.38c.17,8.61-.14,17.21-.63,25.81-.21,3.66-.36,3.94-4.06,3.75-9.64-.51-19.27-1.23-28.9-1.85-7-.45-14-.83-21-1.27-4-.25-4.18-.33-4.09-4.33.28-11.94.45-23.88-.11-35.82-.23-4.91-.69-9.81-.94-14.72s-.21-5,4.5-5.59c7-.86,14-1.57,20.94-2.31q14.14-1.5,28.29-2.94c3.66-.37,3.82-.21,4.18,3.5C943.47,485.51,943.72,497.45,944.18,509.38Z" transform="translate(-17.24 -18.34)"/><path class="d" d="M517.95,83c11.91.47,23.84.69,35.71,1.87,3.35.33,3.59.55,3.24,3.88q-2.61,25.1-5.36,50.19c-.44,3.93-.64,4.14-4.59,3.83q-18.37-1.45-36.79-1.31c-4.91,0-9.82.26-14.73.25-3.67,0-3.89-.21-4.13-3.82q-1.62-24.41-3.12-48.82c-.31-5.21-.19-5.21,5.05-5.48C501.46,83.14,509.7,82.79,517.95,83Z" transform="translate(-17.24 -18.34)"/><path class="b" d="M230,755.72c1.45.43,2.17,1.71,3.07,2.74q13,14.83,27.51,28.26c3.07,2.87,6.18,5.71,9.39,8.43,1.74,1.47,1.73,2.65.29,4.35q-16.85,19.86-33.56,39.83c-1.74,2.08-3,1.64-4.72.11q-11.49-10-22.31-20.81c-7.33-7.3-14.44-14.82-21.2-22.66-2.91-3.36-2.92-3.42.26-6.11q19.08-16.14,38.2-32.23C227.86,756.87,228.67,755.88,230,755.72Z" transform="translate(-17.24 -18.34)"/><path class="b" d="M617.37,153.53c.22-.89.41-1.75.65-2.59q6.61-23.29,13.25-46.57c1.31-4.59,1.37-4.65,5.67-3.34a452.17,452.17,0,0,1,56.57,21.39c4,1.82,4,1.91,2.15,5.84q-10.61,22.35-21.33,44.65c-1.83,3.81-1.92,3.85-5.85,2.13a499.26,499.26,0,0,0-47.74-18C619.11,156.49,616.51,156.56,617.37,153.53Z" transform="translate(-17.24 -18.34)"/><path d="M440.65,881.43c-1.1,5.82-2.23,11.85-3.39,17.88q-3.09,16-6.22,32c-.92,4.72-1,4.78-5.88,3.73a460.35,460.35,0,0,1-57.65-16.38c-4.29-1.53-4.32-1.55-2.69-5.87q8.63-22.89,17.3-45.77c.31-.82.62-1.64,1-2.45.56-1.36,1.4-1.85,2.88-1.18,1.27.58,2.66.89,4,1.35a492.66,492.66,0,0,0,47.58,13.39C440.77,878.91,440.75,879,440.65,881.43Z" transform="translate(-17.24 -18.34)"/><path class="b" d="M926.58,391.84c.39,2.1-.09,2.75-1,3.08s-2,.66-3,.95Q899.26,402.49,876,409.1c-4.49,1.27-4.6,1.25-5.95-3a483.54,483.54,0,0,0-18-47.75c-1.6-3.65-1.56-3.77,2-5.5Q876.55,342,899.14,331.3c3.62-1.72,3.76-1.69,5.22,1.49a463.06,463.06,0,0,1,22,58.06C926.55,391.52,926.66,392.21,926.58,391.84Z" transform="translate(-17.24 -18.34)"/><path class="c" d="M91.78,600c-.27-1.94.73-3,2.49-3.42,1.36-.33,2.74-.59,4.12-.86q22.24-4.3,44.48-8.58c5.09-1,5.41-.87,6.55,4a485.61,485.61,0,0,0,13.68,48.12c1.39,4,1.23,4.19-2.83,5.74q-22.9,8.71-45.84,17.32c-4,1.51-4.48,1.31-5.86-2.54A454.43,454.43,0,0,1,92,601.58C91.92,601.06,91.86,600.54,91.78,600Z" transform="translate(-17.24 -18.34)"/><path class="d" d="M931.49,617.44c-1,3.88-2,7.63-3,11.34A466.53,466.53,0,0,1,912.35,676q-.49,1.22-1,2.42c-.67,1.52-1.71,2.16-3.35,1.42-.8-.36-1.62-.66-2.43-1L862,660.32c-1-.41-1.93-.84-2.89-1.26-1.52-.67-2.09-1.65-1.38-3.34.94-2.26,1.66-4.62,2.57-6.9a421.06,421.06,0,0,0,13.81-42.49c1.34-4.81,1.42-4.86,6-3.79q23.8,5.63,47.57,11.35C929.6,614.36,932.15,614.35,931.49,617.44Z" transform="translate(-17.24 -18.34)"/><path class="d" d="M410.18,95.62a1.94,1.94,0,0,1,2.23,1.32,29.27,29.27,0,0,1,.89,3q5.63,23.52,11.22,47c1.1,4.66,1.07,4.77-3.67,6a479.51,479.51,0,0,0-47.91,15.79c-3.81,1.47-3.94,1.43-5.47-2.12q-9.87-22.94-19.61-45.94c-1.55-3.65-1.46-4,1.65-5.28A447,447,0,0,1,408.87,95.9C409.38,95.77,409.89,95.68,410.18,95.62Z" transform="translate(-17.24 -18.34)"/><path class="d" d="M142,456.23l-22.77-3.44c-8.68-1.3-17.37-2.53-26-3.91-5.06-.81-5.25-1.12-4.39-6.08A470.52,470.52,0,0,1,100.48,392c.74-2.53,1.46-5.06,2.28-7.56,1.26-3.8,1.35-3.89,5.24-2.62,12.52,4.07,25,8.22,37.51,12.34,3,1,6,1.94,9,3,4.68,1.59,4.67,1.61,3.45,6.19-.41,1.53-.79,3.06-1.25,4.57a415.67,415.67,0,0,0-10.22,43.55A24,24,0,0,1,146,454C145.26,456.34,145.11,456.42,142,456.23Z" transform="translate(-17.24 -18.34)"/><path class="d" d="M487.7,137.21c.29,4.61,0,5-4.77,5.41A378.59,378.59,0,0,0,434,149.93c-4.86,1-4.92,1-6.05-3.77Q422.31,122.6,416.72,99c-1.09-4.61-.94-4.85,3.33-5.78a455.79,455.79,0,0,1,60.38-9c3.55-.29,4,.07,4.25,3.55Q486.24,112.51,487.7,137.21Z" transform="translate(-17.24 -18.34)"/><path class="c" d="M327.63,836.54c1,.45,2.16.86,3.22,1.45A393.67,393.67,0,0,0,376,859.56c4.32,1.76,4.41,2,2.84,6.19q-8.6,22.94-17.3,45.84c-1.54,4.06-1.83,4.19-5.76,2.64a436.78,436.78,0,0,1-54.63-26.08c-3.79-2.14-3.82-2.39-1.68-6.06q12.35-21.16,24.79-42.27C325,838.49,325.65,836.94,327.63,836.54Z" transform="translate(-17.24 -18.34)"/><path d="M570.84,884.1c-1.21-2.66,1.3-2.83,3.39-3.19a485.44,485.44,0,0,0,50.69-12c3.48-1,3.59-1,4.73,2.47q6.66,20,13.23,40,1.16,3.5,2.29,7c1.56,4.82,1.56,4.83-3.48,6.36-13.61,4.12-27.36,7.72-41.29,10.58q-8.51,1.75-17.07,3.21c-4.09.69-4.17.58-4.76-3.28C576,918.44,573.48,901.61,570.84,884.1Z" transform="translate(-17.24 -18.34)"/><path class="b" d="M183.22,341.55c-.32.73-.64,1.55-1,2.33a403.25,403.25,0,0,0-20.28,47.4c-1.42,4-1.55,4-5.73,2.64q-23.27-7.59-46.51-15.27c-4.58-1.51-4.58-1.59-2.92-6.3a461.83,461.83,0,0,1,23.6-55.14c2-3.93,2.06-4,5.81-2q21.87,11.57,43.7,23.24C181.17,339.17,182.94,339.49,183.22,341.55Z" transform="translate(-17.24 -18.34)"/><path class="e" d="M226.91,751.82c-.21,1.69-1.38,2.27-2.3,3l-24.88,21.06q-5.82,4.92-11.63,9.85c-4.35,3.71-5.42,3.73-8.87-.71-5.38-6.92-10.73-13.86-15.82-21-6.11-8.56-12.07-17.23-17.54-26.22-2.61-4.29-2.47-4.92,1.75-7.41q20.84-12.28,41.74-24.47c3.75-2.19,4.19-2,6.59,1.85a381.57,381.57,0,0,0,29.51,41.57A4.94,4.94,0,0,1,226.91,751.82Z" transform="translate(-17.24 -18.34)"/><path d="M164.6,647.34c1.59-.34,1.82,1.06,2.28,2.15,1.77,4.2,3.48,8.42,5.3,12.6q7.67,17.6,17.06,34.36c2.27,4.06,2.24,4.13-1.55,6.36q-21.53,12.66-43.09,25.27c-3.29,1.93-3.4,1.91-5.14-1.19a464.85,464.85,0,0,1-26.93-56.41c-.71-1.8-1.27-3.14,1.25-4.08,16.58-6.18,33.11-12.47,49.66-18.72C163.77,647.56,164.11,647.48,164.6,647.34Z" transform="translate(-17.24 -18.34)"/><path class="c" d="M889.43,471.73c-5.63.32-5.76.34-6.38-4.25a432.18,432.18,0,0,0-9.53-49c-1.08-4.23-.83-4.68,3.5-5.93q23.51-6.76,47.08-13.35c3.95-1.11,4.34-.93,5.31,2.71a458,458,0,0,1,11.65,59.86c.47,3.72,0,4.35-3.72,4.77-12.36,1.42-24.74,2.73-37.11,4.07Z" transform="translate(-17.24 -18.34)"/><path class="a" d="M816,207.65c-.08,1.38-1.13,2.12-2,3q-6.11,6.16-12.26,12.29-11.34,11.35-22.7,22.68c-3.4,3.37-3.54,3.43-6.73.36a401.48,401.48,0,0,0-39-32.86c-3.25-2.41-3.27-2.57-1-5.83q14.37-20.44,28.86-40.8c2.3-3.22,2.63-3.25,5.85-.91a466.31,466.31,0,0,1,47,39.62A5.94,5.94,0,0,1,816,207.65Z" transform="translate(-17.24 -18.34)"/><path class="d" d="M555.15,139.69c1.27-12.05,2.6-24.79,4-37.53.43-4,.85-8,1.39-12,.6-4.44.82-4.6,5.37-4,14.44,1.92,28.8,4.32,43,7.6q7.69,1.77,15.35,3.72c4.81,1.22,4.91,1.35,3.6,6-3.18,11.32-6.42,22.62-9.63,33.93-1.25,4.39-2.43,8.8-3.74,13.17-1.22,4.09-1.34,4.18-5.54,3.11-13.1-3.34-26.32-6.11-39.68-8.17-3.64-.56-7.3-1-10.94-1.59C555,143.41,555,143.34,555.15,139.69Z" transform="translate(-17.24 -18.34)"/><path class="b" d="M916.09,541c6.2.37,14.6.84,23,1.39,3.89.25,4.14.6,3.82,4.44A451.65,451.65,0,0,1,934,606.6c-1,4.7-1.2,4.82-6,3.69q-23.53-5.55-47-11.17c-4.7-1.12-4.77-1.18-3.73-6a374.08,374.08,0,0,0,7.3-48.84c.41-5.1.59-5.26,5.75-5C898.15,539.76,906,540.35,916.09,541Z" transform="translate(-17.24 -18.34)"/><path class="d" d="M108.93,524.45a272.44,272.44,0,0,1,28-1c4.08,0,4.2.11,4.43,4.06a461.4,461.4,0,0,0,5.56,51.21c.64,3.72.46,3.92-3.59,4.71q-19.09,3.74-38.2,7.4c-3.61.7-7.21,1.49-10.84,2.07s-4.07.35-4.59-3.12c-1.5-9.87-3.11-19.74-4.21-29.67s-2-19.89-2.24-29.89c-.13-5.58-.09-5.68,5.31-5.74C96.47,524.39,104.36,524.45,108.93,524.45Z" transform="translate(-17.24 -18.34)"/><path class="d" d="M322.86,834.7c-.29.6-.6,1.41-1,2.15q-12.89,22-25.82,44c-1.87,3.16-2,3.18-5.31,1.18a452.26,452.26,0,0,1-49.81-35.18c-3.39-2.76-3.42-2.9-.64-6.21q16.05-19.15,32.22-38.21c2.44-2.88,2.6-2.89,5.46-.58a407.67,407.67,0,0,0,42.49,30.05C321.41,832.54,322.7,833,322.86,834.7Z" transform="translate(-17.24 -18.34)"/><path class="d" d="M759.89,161.35c-.14,1.4-1.16,2.43-2,3.56Q747.32,180,736.67,195c-2.13,3-4.23,6-6.38,9-3.6,5-3.18,4.51-7.63,1.52q-15.53-10.41-31.95-19.35c-4-2.18-8-4.34-12.14-6.31-2.31-1.11-2.52-2.41-1.47-4.58,7.39-15.33,14.67-30.7,22-46,1.64-3.4,1.78-3.4,5.64-1.47a457.3,457.3,0,0,1,46.48,26.78c2.35,1.54,4.66,3.12,7,4.71A3.29,3.29,0,0,1,759.89,161.35Z" transform="translate(-17.24 -18.34)"/><path d="M778.53,852.61a4.32,4.32,0,0,1-1.92-1.7q-15.76-20.4-31.53-40.8c-2.26-2.93-2.27-3,.51-5.3a413.9,413.9,0,0,0,38.71-35.59,5.17,5.17,0,0,1,2.8-2l26.57,24.34c4.53,4.15,9,8.33,13.57,12.45,1.5,1.36,2.16,2.41.4,4.24a457.17,457.17,0,0,1-48.16,43.93A3.93,3.93,0,0,1,778.53,852.61Z" transform="translate(-17.24 -18.34)"/><path class="c" d="M738.93,810.29c2,0,2.7,1.31,3.55,2.38q6.15,7.88,12.26,15.81c6,7.77,12,15.53,18,23.33,2.56,3.34,2.54,3.72-.87,6.26a436.22,436.22,0,0,1-50.82,32.79c-3.56,2-4,1.81-6.06-2q-11.57-21.57-23-43.2c-2-3.87-2-4.12,1.66-6.18a424.57,424.57,0,0,0,42.86-27.69C737.36,811.2,738.28,810.69,738.93,810.29Z" transform="translate(-17.24 -18.34)"/><path d="M260.31,240.57A428.58,428.58,0,0,0,220,284.48l-46-35.57a446.82,446.82,0,0,1,46.92-51.21Z" transform="translate(-17.24 -18.34)"/><path class="c" d="M507.15,915.41c0-8.07-.07-16.14,0-24.21.05-4.64.57-5.21,5.17-5.22,13.17,0,26.29-.8,39.39-2.1,2.62-.26,5.22-.6,7.84-.91,7-.82,7.46-.48,8.49,6.32s2,13.52,3,20.29q1.85,12.49,3.68,25c.7,4.83.34,5.39-4.59,6q-10.18,1.2-20.4,2.14A368.75,368.75,0,0,1,511.95,944c-5.61-.07-6-.41-5.78-6C506.51,930.48,507.1,923,507.15,915.41Z" transform="translate(-17.24 -18.34)"/><path class="e" d="M216.72,287.83A6.68,6.68,0,0,1,215,291a442.26,442.26,0,0,0-27.39,42.44c-2,3.42-2.5,3.59-6.32,1.64-7.19-3.67-14.32-7.45-21.44-11.26q-11.14-6-22.2-12.05c-3.36-1.86-3.38-2.08-1.66-5.21a451,451,0,0,1,32.12-50c.21-.28.42-.56.64-.83,2.81-3.53,3.26-3.67,6.76-1.06,5.48,4.1,10.87,8.31,16.29,12.5q11,8.53,22,17.1C215.09,285.23,216.6,286,216.72,287.83Z" transform="translate(-17.24 -18.34)"/><path d="M817.34,296.42c-1.54.21-2-.91-2.57-1.7-3.23-4.16-6.38-8.38-9.63-12.52-7.58-9.68-15.77-18.83-24.23-27.75-2.68-2.83-2.67-2.93.16-5.76q17.66-17.72,35.37-35.38c2.93-2.92,3-2.88,6,.28a460.06,460.06,0,0,1,38.7,45.83c.42.56.79,1.16,1.24,1.7,1.24,1.47,1.4,2.77-.47,3.85-.45.26-.85.62-1.28.92L819.8,294.75C818.95,295.36,818.07,295.93,817.34,296.42Z" transform="translate(-17.24 -18.34)"/><path class="d" d="M112,521c-7.71,0-15.42,0-23.12,0-5.7,0-5.7,0-5.78-5.86-.29-19.49,1.26-38.88,3.55-58.21.08-.7.24-1.38.33-2.08.31-2.39,1.46-3.17,4-2.74,6.21,1.08,12.47,1.87,18.71,2.79q14.56,2.15,29.11,4.34c6.13.93,6.28,1,5.57,6.85a425.72,425.72,0,0,0-3.12,49.3c0,4.25-.26,4.49-4.49,4.54-8.24.09-16.48,0-24.71,0Z" transform="translate(-17.24 -18.34)"/><path class="e" d="M873.26,749.44a10.36,10.36,0,0,1-1.94,3.76,445.77,445.77,0,0,1-28.88,38.22c-2.58,3.1-5.32,6.07-8,9.09-1.73,2-3.42,2-5.39.19-5.43-5-11-9.81-16.43-14.79q-10.09-9.25-20-18.66c-3.3-3.14-3.23-3.56-.32-6.85a399.77,399.77,0,0,0,30.05-38.64c3.14-4.56,3.22-4.64,7.83-1.7q20,12.74,39.88,25.63C871.43,746.62,873.27,747.3,873.26,749.44Z" transform="translate(-17.24 -18.34)"/><path class="e" d="M503.81,900.34c-.88,12.78-1,25.58-1.06,38.38,0,4.54-.72,5.26-5.26,5.13-6.65-.19-13.32-.49-19.94-1.14-12.73-1.25-25.45-2.67-38.05-5-5-.91-5.76-1.81-4.84-6.62q4.48-23.52,9.17-47c.78-3.91,1.37-4.23,5.39-3.71,10.43,1.35,20.84,2.85,31.29,4,6.26.72,12.58.93,18.87,1.46,3.74.31,4.26.81,4.4,4.44C503.91,893.67,503.81,897,503.81,900.34Z" transform="translate(-17.24 -18.34)"/><path class="e" d="M712.93,893.33a2.54,2.54,0,0,1-1.32,2.47c-.91.53-1.84,1-2.78,1.5a436.61,436.61,0,0,1-53.69,23c-4.39,1.56-5,1.33-6.51-3.13q-7.62-22.72-15.1-45.49c-1.48-4.51-1.22-5.07,3.12-6.64a488.79,488.79,0,0,0,46-19.55c3.61-1.75,4.24-1.59,6.26,2,3,5.35,5.84,10.81,8.71,16.24q7,13.27,13.95,26.58C712.15,891.37,712.57,892.52,712.93,893.33Z" transform="translate(-17.24 -18.34)"/><path class="b" d="M908.4,685.26c-.38.94-.74,1.93-1.17,2.89a460.92,460.92,0,0,1-28.39,53.44c-2.43,3.9-2.51,3.93-6.45,1.4q-20.82-13.38-41.6-26.85c-3.26-2.11-3.31-2.24-1.18-5.7a412.51,412.51,0,0,0,24.19-45.55c1.56-3.44,1.7-3.48,5-2.07q23.27,9.87,46.5,19.84C906.54,683.19,908.1,683.45,908.4,685.26Z" transform="translate(-17.24 -18.34)"/><path class="c" d="M309.07,200.41a2.66,2.66,0,0,1-1.47,2.94c-1.85,1.33-3.75,2.59-5.62,3.9a397.7,397.7,0,0,0-35.19,27.59c-3.68,3.24-3.78,3.27-7.13-.34q-16.11-17.36-32.12-34.81c-.48-.52-.89-1.09-1.38-1.59-1.87-1.89-1.77-3.6.27-5.33,3.47-3,6.82-6.07,10.33-9,11.65-9.6,23.6-18.81,36.13-27.23.87-.59,1.78-1.13,2.62-1.77,2.22-1.7,3.72-1,5.11,1.21,3.25,5.21,6.66,10.32,10,15.48q8.27,12.83,16.52,25.67C307.89,198.32,308.56,199.54,309.07,200.41Z" transform="translate(-17.24 -18.34)"/><path class="d" d="M313.84,199.12A2.58,2.58,0,0,1,312,198c-.49-.73-1-1.45-1.46-2.18q-13.12-20.33-26.23-40.67c-2.72-4.23-2.7-4.3,1.42-6.87a451.79,451.79,0,0,1,52.92-28.11c4.15-1.87,4.24-1.85,6.08,2.43q9.75,22.72,19.4,45.47c1.54,3.63,1.53,3.81-1.66,5.25A411.12,411.12,0,0,0,316,198C315.3,198.42,314.49,198.78,313.84,199.12Z" transform="translate(-17.24 -18.34)"/><path d="M522.44,878.23c-6.7,0-13,.07-19.32,0-4.45-.07-4.56-.18-4.4-4.85.32-9.28.57-18.57,1.22-27.83.5-7,.66-14,.93-21,.17-4.57.3-4.71,4.79-4.66,15.09.18,30.15-.15,45.12-2.21,2.84-.39,3.55.74,3.9,3.32,1.92,14.41,4,28.81,6.05,43.21.32,2.26.71,4.5,1,6.76.46,4.07.43,4.08-3.48,4.61C546.22,877.17,534.14,877.73,522.44,878.23Z" transform="translate(-17.24 -18.34)"/><path d="M207,469.07c-16.8-2.32-34-4.71-51.21-7-2.46-.33-3.3-1.37-2.88-3.83a419.13,419.13,0,0,1,13.17-55.76c.8-2.53,2-2.77,4.25-2q24.41,8.29,48.88,16.39c2.18.72,3,1.55,2.24,4.11a357.2,357.2,0,0,0-10.7,45.54C210.45,468.6,209.79,469.84,207,469.07Z" transform="translate(-17.24 -18.34)"/><path class="a" d="M148.83,507c.69-14,1.08-26,2.78-37.79.55-3.82.9-4.16,4.73-3.63q24.51,3.4,49,7c4.35.63,4.44.81,3.94,5a306.61,306.61,0,0,0-2,42.05c0,1.23,0,2.46,0,3.69,0,2-1.09,2.83-2.92,3q-.79.07-1.58.11c-15.79.73-31.57,1.5-47.36,2.16-6.4.27-6.48.17-6.6-6.2C148.75,516.49,148.83,510.69,148.83,507Z" transform="translate(-17.24 -18.34)"/><path class="d" d="M874.2,567.93c-1.21,8.41-2.8,16.14-4.46,23.85q-3.49,16.21-8.51,32c-1.21,3.83-1.37,3.93-5.19,2.66q-23.71-7.87-47.38-15.87c-3.61-1.22-3.78-1.47-2.8-4.86a416.48,416.48,0,0,0,10.33-44c.65-3.72,1.08-4,5-3.47,16.5,2.26,33,4.63,49.48,7C872.61,565.48,874.74,565.56,874.2,567.93Z" transform="translate(-17.24 -18.34)"/><path class="a" d="M200.53,529.78h.53c6.67-.12,6.31-.3,6.86,6A335.56,335.56,0,0,0,213.78,577c1.08,5.09,1,5.15-4.05,6.33q-23.57,5.55-47.15,11c-4.18,1-4.57.73-5.43-3.27A387.89,387.89,0,0,1,149.71,539c-.1-1.4-.11-2.81-.11-4.21a2.56,2.56,0,0,1,2.56-2.75c.52-.07,1-.11,1.57-.13l46.8-2Z" transform="translate(-17.24 -18.34)"/><path d="M441.2,813.61c-2.45,10.5-4.83,20.75-7.23,31-1.6,6.83-3.35,13.63-4.83,20.49-.54,2.51-1.51,3.06-4,2.41a410.13,410.13,0,0,1-54.34-18.24c-2.41-1-2.63-2.09-1.63-4.34Q379.73,821.4,390,797.76c1-2.19,1.91-2.86,4.36-1.86a399.36,399.36,0,0,0,44.36,15C441.49,811.62,441.46,811.74,441.2,813.61Z" transform="translate(-17.24 -18.34)"/><path class="d" d="M469,207.63c.47,2.17-1,2.88-2.92,3.24-5.16,1-10.31,2.07-15.49,3-9.69,1.73-19,4.85-28.53,7.28-4.19,1.07-4.28,1.09-5.65-3q-7.92-23.42-15.72-46.89c-1.34-4-1.26-4.12,3-5.45a377,377,0,0,1,52.68-12.46c4.84-.8,5-.7,5.65,4,2.34,16.13,4.6,32.27,6.89,48.41C468.93,206.37,468.95,206.9,469,207.63Z" transform="translate(-17.24 -18.34)"/><path class="b" d="M586,213.07l.6-2.56q5.48-23.31,11-46.63c1.14-4.81,1.31-4.92,6-3.71a376.5,376.5,0,0,1,51.35,17.26c4.22,1.77,4.25,1.82,2.37,6.08q-9.86,22.41-19.77,44.8c-1.79,4.05-1.89,4.14-5.68,2.62a399.49,399.49,0,0,0-42.4-14.22C587.58,216.18,585.48,215.9,586,213.07Z" transform="translate(-17.24 -18.34)"/><path d="M215.31,585.91a23.78,23.78,0,0,1,2,5.94,389,389,0,0,0,13.47,39.86c1.59,4,1.53,4.12-2.2,5.78q-22.86,10.14-45.74,20.22c-3.62,1.59-3.69,1.56-5.23-2.13a375.78,375.78,0,0,1-17.7-52.85c-.94-3.74-.93-3.83,2.54-4.65q25.6-6.07,51.22-12A11,11,0,0,1,215.31,585.91Z" transform="translate(-17.24 -18.34)"/><path class="d" d="M632.78,858.25c-2.12-.05-2.29-1.64-2.72-2.91q-3.24-9.47-6.41-19c-3.25-9.65-6.53-19.3-9.72-29-1.18-3.59-1.13-3.75,2.29-5a421.22,421.22,0,0,0,41.43-18.29c3.45-1.75,3.59-1.68,5.59,1.89q12.1,21.61,24.11,43.27c2.11,3.81,2.08,3.91-1.7,5.92a386,386,0,0,1-50.06,22.16C634.6,857.68,633.6,858,632.78,858.25Z" transform="translate(-17.24 -18.34)"/><path class="b" d="M832.91,497.39c-3.15,0-6.3,0-9.46,0-3.58.06-3.94,0-4.17-3.68-.42-6.83-1.18-13.61-2-20.39-1.05-8.17-2.5-16.27-4.15-24.34-.74-3.61-.59-3.88,2.94-4.72q24.28-5.8,48.6-11.45c4.31-1,4.38-.9,5.39,3.74a384.45,384.45,0,0,1,7.6,54.61c.25,3.51.07,3.69-3.77,3.89q-20.47,1-40.94,2Z" transform="translate(-17.24 -18.34)"/><path class="a" d="M394.38,169c1,0,1.66.26,2,1,.39,1,.79,1.95,1.12,2.95q7.71,23,15.4,45.91c1.52,4.57,1.51,4.67-3,6.41a408.63,408.63,0,0,0-39.93,17.67c-3.9,2-4,1.93-6.06-1.72Q351.76,219.62,339.76,198c-2.08-3.75-2-4,1.84-6a385.57,385.57,0,0,1,50.52-22.29C392.94,169.38,393.79,169.16,394.38,169Z" transform="translate(-17.24 -18.34)"/><path class="a" d="M663.61,181.25c1.09.48,2.07.87,3,1.32a381.46,381.46,0,0,1,47.81,26.64c3.66,2.39,3.68,2.48,1.24,6.06Q701.88,235.5,688,255.68c-2.74,4-2.83,4-6.92,1.34a327.85,327.85,0,0,0-37.71-21C639,234,639,233.89,641,229.37q9.76-22.18,19.59-44.32C661.22,183.54,661.49,181.59,663.61,181.25Z" transform="translate(-17.24 -18.34)"/><path class="a" d="M258.73,684.05a1.86,1.86,0,0,1-.61,2.27,30,30,0,0,1-2.53,1.87q-19.74,13.53-39.49,27c-4.4,3-4.47,3-7.3-1.34a380.78,380.78,0,0,1-26.09-46.81c-2-4.33-2-4.53,2.59-6.55q22.35-9.92,44.74-19.73c3.73-1.64,3.9-1.62,5.59,1.93a336.25,336.25,0,0,0,22,39.46C258.14,682.91,258.52,683.69,258.73,684.05Z" transform="translate(-17.24 -18.34)"/><path d="M795.18,744.66c-2.17-1-3.71-2.71-5.45-4.14-12.17-10.06-24.28-20.2-36.49-30.21-2.08-1.7-2.39-2.91-.63-5.08a298.77,298.77,0,0,0,26.15-38.17c1.23-2.12,2.24-2.59,4.49-1.32q22.45,12.68,45,25.13c2,1.08,3,2,1.59,4.41a392.26,392.26,0,0,1-33.42,48.49A5.72,5.72,0,0,1,795.18,744.66Z" transform="translate(-17.24 -18.34)"/><path class="d" d="M845.82,363.43a1.89,1.89,0,0,1-1.06,1.85c-.79.39-1.58.77-2.38,1.13q-22.16,9.8-44.32,19.58c-4.8,2.11-4.89,2.09-7.09-2.55a330.93,330.93,0,0,0-21-37.68c-2.5-3.87-2.48-4,1.28-6.54q20.19-13.88,40.42-27.68c3.8-2.59,3.87-2.56,6.41,1.32a381.19,381.19,0,0,1,26.62,47.82C845.1,361.63,845.48,362.61,845.82,363.43Z" transform="translate(-17.24 -18.34)"/><path d="M195.87,334.64a301.77,301.77,0,0,1,16.09-26q8.09-12,17.16-23.3c2.6-3.24,2.7-3.29,5.69-.81q19.47,16.1,38.87,32.29c2.84,2.37,2.86,2.49.62,5.33a327.93,327.93,0,0,0-25.82,37.76c-.87,1.48-1.52,3.26-3.94,1.91C228.49,352.8,212.41,343.86,195.87,334.64Z" transform="translate(-17.24 -18.34)"/><path d="M318.22,276.1a10,10,0,0,0-1-1.68C306.11,261,295,247.64,283.87,234.34c-1.74-2.07-1.27-3.11.62-4.6a412.83,412.83,0,0,1,46.84-32.12c2.32-1.37,3.53-1.25,4.91,1.27q12.4,22.61,25.1,45.05c1.26,2.23.86,3.25-1.28,4.5a318.74,318.74,0,0,0-38.62,26.43A4.57,4.57,0,0,1,318.22,276.1Z" transform="translate(-17.24 -18.34)"/><path class="c" d="M707.13,751.49c2.12,0,2.92,1.55,3.89,2.71q9,10.67,17.86,21.41,6.73,8.09,13.43,16.2c2.8,3.41,2.84,3.58-.49,6.23a372.85,372.85,0,0,1-45.55,31.17c-3.37,1.95-3.7,1.88-5.7-1.65-6.21-11-12.32-22-18.46-33.07-1.88-3.37-3.82-6.71-5.6-10.13-1.9-3.65-1.83-4.07,1.79-6.25,8.27-5,16.42-10.12,24.2-15.85,4-2.91,7.86-5.89,11.8-8.82C705.26,752.73,706.28,752.07,707.13,751.49Z" transform="translate(-17.24 -18.34)"/><path class="b" d="M338.15,766.33c-.36.6-.77,1.37-1.26,2.09-9.62,14.05-19.28,28.07-28.83,42.17-1.53,2.27-2.76,2.54-5,.91a411.17,411.17,0,0,1-43.71-36.32c-1.75-1.67-2.08-2.81-.19-4.67q18.35-18.15,36.49-36.5c2-2,3.33-1.73,5.18.07A318.08,318.08,0,0,0,336,763.37C337,764.07,338.18,764.62,338.15,766.33Z" transform="translate(-17.24 -18.34)"/><path class="g" d="M769,254.53c-.22,1.7-1.59,2.64-2.68,3.73q-13,13-26,26c-3,3-6,5.9-8.91,8.93-1.68,1.75-3.08,1.83-4.87.09A328.69,328.69,0,0,0,691.46,264c-2.95-2.17-3-2.46-.94-5.52,5.57-8.29,11.24-16.52,16.88-24.76,3.66-5.35,7.29-10.73,11-16,2.61-3.71,3-3.81,6.66-1.18a343.73,343.73,0,0,1,28,22.18c4.58,4.07,9.07,8.25,13.57,12.42C767.68,252.06,768.87,252.93,769,254.53Z" transform="translate(-17.24 -18.34)"/><path d="M507.31,149c6.59,0,11.33,0,16.07,0,5,0,5.07.08,4.9,4.88-.31,8.94-.75,17.87-1.15,26.8q-.49,11-1,22.07c-.22,4.41-.26,4.53-4.43,4.45a310.3,310.3,0,0,0-31.54.91c-4.54.37-9.1.66-13.61,1.27-2.65.36-3.81-.31-4.18-3.09q-3.41-25.55-7.08-51.05c-.32-2.24.21-3.31,2.47-3.54,4.36-.45,8.7-1.15,13.07-1.41C490.24,149.77,499.67,148.68,507.31,149Z" transform="translate(-17.24 -18.34)"/><path class="a" d="M294.79,729c-.28,1.54-1.5,2.36-2.47,3.33q-10.4,10.46-20.85,20.87c-4.84,4.84-9.75,9.62-14.5,14.55-1.94,2-3.26,1.8-5.12-.14a390,390,0,0,1-35.66-42.9c-2.45-3.41-2.44-3.54,1.25-6.08q19.09-13.14,38.25-26.19c1.3-.89,2.62-1.76,3.92-2.67s2.59-.83,3.6.59c.51.72,1.06,1.4,1.58,2.11a325.9,325.9,0,0,0,27.62,33.17C293.35,726.67,294.52,727.55,294.79,729Z" transform="translate(-17.24 -18.34)"/><path class="c" d="M812.35,304.82c.2,1.83-.94,2.48-1.93,3.17-3.31,2.31-6.64,4.58-10,6.86Q785,325.4,769.62,335.95c-4.17,2.84-4.26,2.83-7-1A343.56,343.56,0,0,0,734.33,301c-2.62-2.76-2.64-2.92-.06-5.52q17.62-17.73,35.35-35.35c3-3,3.29-2.94,6.31.17a370,370,0,0,1,34.94,42.05C811.48,303.24,812,304.17,812.35,304.82Z" transform="translate(-17.24 -18.34)"/><path class="c" d="M346.81,523.47c-.27-8.26-.27-8.27,7.59-8.28q21.3,0,42.61,0c1.23,0,2.45.06,3.68,0,2.81,0,4,1.31,4.2,4.15a122.29,122.29,0,0,0,6.05,30.34c1.23,3.68,1.14,3.94-2.58,5.51q-23,9.68-46.14,19.17c-3.44,1.41-3.89,1.14-5.29-2.67A169.63,169.63,0,0,1,347.87,534C347.41,530.33,346.69,526.71,346.81,523.47Z" transform="translate(-17.24 -18.34)"/><path d="M511.94,651.41c0,8.43,0,16.85,0,25.28,0,3.87-.13,4-3.79,3.83a176.42,176.42,0,0,1-54-10.68c-2.13-.76-2.68-1.77-1.8-3.88q10.14-24.28,20.15-48.61c.89-2.17,2.08-2.22,4.09-1.5a111.6,111.6,0,0,0,31.88,6.37c2.84.15,3.52,1.36,3.5,3.9C511.89,634.56,511.94,643,511.94,651.41Z" transform="translate(-17.24 -18.34)"/><path class="e" d="M651.48,515c8.07,0,16.13-.09,24.2,0,4.46.07,5.19,1.13,4.87,5.43a191.13,191.13,0,0,1-6.74,39.83c-1,3.53-2.09,7.06-3.33,10.53-1.54,4.28-2.41,4.7-6.63,3-10.24-4.15-20.42-8.41-30.63-12.64-4.7-1.95-9.41-3.84-14.07-5.89-3.55-1.56-4-2.4-2.81-6.1a109.09,109.09,0,0,0,5.71-29.85c.13-3.47,1.16-4.24,5.22-4.29C635.35,514.93,643.42,515,651.48,515Z" transform="translate(-17.24 -18.34)"/><path class="c" d="M629.59,633.08a3.89,3.89,0,0,1-1.47,2.19,179.48,179.48,0,0,1-45.25,30.32c-3.2,1.49-3.77,1.31-5.18-2.05q-9.66-23-19.12-46.15c-1.47-3.58-1.24-4.13,2.11-5.79a115.11,115.11,0,0,0,25.67-17.24c2.83-2.52,3-2.49,6,.47q13.07,13,26,26c3.22,3.22,6.45,6.44,9.65,9.68C628.78,631.25,629.64,632,629.59,633.08Z" transform="translate(-17.24 -18.34)"/><path d="M666.88,579.8a153.65,153.65,0,0,1-14.76,27,159.38,159.38,0,0,1-16.59,21c-2.4,2.56-2.49,2.63-4.88.25-12.17-12.12-24.26-24.32-36.5-36.38-2.06-2-1.64-3.3,0-5.14a106.62,106.62,0,0,0,17.71-26.58c1.16-2.47,2.28-2.88,4.79-1.82,16,6.75,32,13.35,48,20A3.76,3.76,0,0,1,666.88,579.8Z" transform="translate(-17.24 -18.34)"/><path class="f" d="M651.47,511.73c-8.06,0-16.13,0-24.19,0-4.75,0-5-.29-5.28-5.06a112.84,112.84,0,0,0-5.71-28.78c-1.4-4.3-1.39-4.36,2.89-6.14q22.33-9.29,44.69-18.5c4.79-2,4.78-1.9,6.59,3.1a178.4,178.4,0,0,1,10.09,50.85c.23,4-.1,4.48-4.37,4.52C667.94,511.78,659.7,511.73,651.47,511.73Z" transform="translate(-17.24 -18.34)"/><path class="c" d="M438.06,592.71c1.29.25,2.11,1.22,3,2a120.91,120.91,0,0,0,25.32,16.91c3.76,1.87,3.81,2.07,2.16,6.1-4.45,10.88-9,21.72-13.49,32.58-1.61,3.89-3.19,7.79-4.85,11.67-2.24,5.23-2.41,5.28-7.75,2.81a157.82,157.82,0,0,1-22.78-13.13A151.55,151.55,0,0,1,399.9,636c-2.88-2.77-2.94-3.13-.17-5.92q17.62-17.74,35.35-35.38C435.93,593.84,436.69,592.81,438.06,592.71Z" transform="translate(-17.24 -18.34)"/><path class="e" d="M515.46,650.87c0-7.9-.08-15.8,0-23.7.06-4,.62-4.43,4.6-4.81a134.45,134.45,0,0,0,28.3-5.81c4.78-1.53,5.35-1.35,7.22,3.11q9.26,22.09,18.36,44.25c1.68,4.08,1.44,4.94-2,6.16a171.64,171.64,0,0,1-50.34,10.32c-.87,0-1.75,0-2.63,0-2.38-.07-3.49-1.39-3.52-3.68,0-3.69-.07-7.37-.07-11.06,0-4.91,0-9.83,0-14.74Z" transform="translate(-17.24 -18.34)"/><path class="b" d="M632.92,397.38c1.58.53,2.46,1.89,3.51,3a177.09,177.09,0,0,1,28.83,43.18c2,4.25,2,4.31-2.19,6.07q-22.59,9.42-45.21,18.76c-4.36,1.8-4.46,1.78-6.43-2.21a115.44,115.44,0,0,0-16.6-24.88c-3-3.44-3-3.52.2-6.73q17.47-17.52,35-35A7.13,7.13,0,0,1,632.92,397.38Z" transform="translate(-17.24 -18.34)"/><path class="d" d="M434.72,589c-.39,1.66-1.58,2.5-2.55,3.48Q421,603.7,409.86,614.84c-4.21,4.21-8.4,8.46-12.66,12.63-3,2.91-3.17,2.94-5.81.06a173.44,173.44,0,0,1-29.92-44.87c-1.43-3.11-1.34-3.46,1.73-4.75,15.84-6.64,31.73-13.15,47.56-19.8,2.4-1,3.48-.16,4.46,1.91a114.67,114.67,0,0,0,18.06,27A20.66,20.66,0,0,1,434.72,589Z" transform="translate(-17.24 -18.34)"/><path class="d" d="M375.54,511.79c-8.24,0-16.48.06-24.72,0-4,0-4.26-.3-4.13-4.22a170.33,170.33,0,0,1,10.56-52.87c1.14-3.13,1.41-3.24,4.64-1.91,15.72,6.46,31.4,13,47.13,19.47,2.5,1,3.08,2.29,2.16,4.82a117.1,117.1,0,0,0-6.31,30.8c-.3,3.64-.48,3.86-4.1,3.9C392.37,511.85,384,511.79,375.54,511.79Z" transform="translate(-17.24 -18.34)"/><path class="c" d="M394.22,397.75c1.4.3,2.22,1.52,3.19,2.49q11.94,11.88,23.83,23.81c3.72,3.72,7.48,7.41,11.15,11.18,2.67,2.74,2.72,3,.38,5.61a115.15,115.15,0,0,0-17.24,25.7c-1.64,3.34-2.32,3.59-5.81,2.16q-22.88-9.4-45.69-19c-3.91-1.64-4-2.13-2.24-5.92a178.79,178.79,0,0,1,29.79-44.4C393,397.84,393.35,397.69,394.22,397.75Z" transform="translate(-17.24 -18.34)"/><path class="d" d="M505.53,214.77c5.26,0,10.53-.08,15.79,0,3.8.08,4.06.34,3.91,3.83-.72,17-1.54,34-2.23,51-.11,2.73-1.25,3.61-3.89,3.59a280.38,280.38,0,0,0-32.6,1.3c-4.26.45-4.42.25-5-4-2.09-14.41-4.08-28.84-6.11-43.26-.27-1.91-.63-3.81-.83-5.73-.4-3.77-.07-4.39,3.7-4.74,7.51-.71,15-1.19,22.57-1.72,1.57-.11,3.15,0,4.73,0Z" transform="translate(-17.24 -18.34)"/><path d="M215.32,532.9c-.64-2.74.55-3.79,3-3.85.87,0,1.74-.22,2.62-.26l46.26-2.13c.7,0,1.4,0,2.11,0,3.87,0,3.92,0,4.43,4.05.37,3,.61,5.93.86,8.91.65,7.88,2.28,15.61,3.61,23.39.67,3.89.58,4-3.26,4.91q-24.57,5.83-49.16,11.56c-3.43.8-3.59.72-4.27-2.5A320.83,320.83,0,0,1,215.32,532.9Z" transform="translate(-17.24 -18.34)"/><path class="c" d="M478,272.42c.35,2.55-1,3.28-2.66,3.63-3.43.73-6.86,1.46-10.31,2.08-7.27,1.3-14.3,3.5-21.42,5.38-4.88,1.29-5,1.28-6.48-3.21q-7.74-22.93-15.38-45.89c-1.53-4.59-1.38-4.79,3.34-6.22a346.62,346.62,0,0,1,40.43-9.52c4.8-.84,4.94-.65,5.61,4.22q3.25,23.7,6.54,47.4C477.83,271.16,478,272,478,272.42Z" transform="translate(-17.24 -18.34)"/><path class="f" d="M499.53,783.37c-.85,7.27-.84,15.17-1.14,23.07-.2,5.42-.68,5.73-5.88,5.28A318.06,318.06,0,0,1,451.87,806c-4.85-1.05-4.93-1.1-3.81-5.88q5.43-23.34,11-46.66c1.15-4.84,1.61-5.18,6.5-4.23a274.42,274.42,0,0,0,29.72,4.12c5.16.43,5.58.93,5.28,6.28C500.08,767.33,499.55,775,499.53,783.37Z" transform="translate(-17.24 -18.34)"/><path class="g" d="M798.84,501.87c3.16,0,6.32,0,9.47,0,3.47,0,3.86.31,4.18,3.8,0,.35,0,.7,0,1.05a376,376,0,0,1-2.11,41.5c-.37,3.91-1.42,4.77-5,4.27q-24-3.32-47.93-6.81c-4.83-.71-5.36-1.24-4.73-6.17,1.27-10,.95-20,1.13-30,.09-4.78.31-5.07,5-5.34,13.31-.77,26.62-1.45,39.93-2.17Z" transform="translate(-17.24 -18.34)"/><path class="e" d="M702.12,744.21c-.29,1.76-1.69,2.65-2.92,3.59-7.81,6-15.67,11.86-24,17.1-3.57,2.24-7.12,4.5-10.77,6.59-3.29,1.89-4,1.78-5.89-1.49-3.57-6-7-12.19-10.37-18.32q-6.89-12.43-13.68-24.92c-2-3.75-2.06-4,1.62-6.22a304.29,304.29,0,0,0,26.48-18.14c3.11-2.36,3.61-2.26,6,.66q15.83,19,31.57,38.08C701,742.08,701.93,742.91,702.12,744.21Z" transform="translate(-17.24 -18.34)"/><path class="b" d="M809,558.84c-1.46,7.52-2.54,14.28-4.11,20.92-1.85,7.84-4,15.6-6.22,23.36-1,3.57-1.24,3.68-4.77,2.51-16.13-5.35-32.23-10.79-48.36-16.14-2.2-.73-3.18-1.74-2.43-4.21A275.19,275.19,0,0,0,751,552.06c.44-2.55,1.53-3.49,4.26-3.1,16.82,2.45,33.65,4.77,50.48,7.08C807.92,556.35,809.54,556.92,809,558.84Z" transform="translate(-17.24 -18.34)"/><path d="M434.81,284.49a1.61,1.61,0,0,1-1,2,14.56,14.56,0,0,1-1.93.82A275.43,275.43,0,0,0,401.17,301c-2.41,1.26-3.6.95-4.93-1.47q-12.4-22.59-25.08-45c-1.27-2.24-.88-3.28,1.36-4.41a377.94,377.94,0,0,1,40.88-18c3.38-1.23,3.48-1.19,4.72,2.49q7.31,21.67,14.53,43.37C433.43,280.26,434.19,282.59,434.81,284.49Z" transform="translate(-17.24 -18.34)"/><path class="f" d="M795.62,612.13c-.34,1-.72,2.15-1.15,3.29A356.62,356.62,0,0,1,777.89,653c-2.27,4.4-2.3,4.47-6.63,2.07q-21-11.6-41.87-23.29c-4.65-2.6-4.73-2.71-2.46-7.2a309.65,309.65,0,0,0,12.53-28.4c1.66-4.33,1.83-4.37,6.15-2.93q23.23,7.72,46.42,15.57C793.58,609.3,795.65,609.47,795.62,612.13Z" transform="translate(-17.24 -18.34)"/><path class="c" d="M722.66,301.08c-.21,1.35-1.22,2.12-2.07,3q-6.31,6.36-12.66,12.68-10.81,10.81-21.62,21.61c-3.71,3.69-3.84,3.8-7.53.43-7.8-7.11-15.94-13.78-24.36-20.13-3.32-2.5-3.32-2.65-.8-6.36,7.1-10.46,14.27-20.88,21.42-31.32,2.08-3,4.14-6.11,6.27-9.12,2.64-3.74,2.7-3.77,6.56-1a291.46,291.46,0,0,1,23.44,18.76q4.91,4.39,9.74,8.87A3.71,3.71,0,0,1,722.66,301.08Z" transform="translate(-17.24 -18.34)"/><path class="f" d="M803.29,440.52c.39,2.3-.4,3.1-1.74,3.47-1,.28-2.05.47-3.08.72l-45.61,10.77c-.85.2-1.73.3-2.58.52-2.2.59-3.3-.44-3.81-2.46-.26-1-.6-2-.87-3a274.62,274.62,0,0,0-9.42-27.93C734.4,418,734.48,418,739,416q22.15-9.82,44.32-19.56c4.26-1.87,4.41-1.83,5.93,2A369.3,369.3,0,0,1,803,439.25,12.77,12.77,0,0,1,803.29,440.52Z" transform="translate(-17.24 -18.34)"/><path class="e" d="M768.06,500.18c-4.15,0-7,.09-9.76,0-3.72-.15-4.12-.45-4.74-4.2-1.26-7.61-1.31-15.37-3-22.93-.61-2.74-1.05-5.51-1.49-8.29-.65-4.09-.23-4.66,4.06-5.71q6.9-1.68,13.82-3.3,16.14-3.79,32.29-7.55c5-1.15,5.63-.8,6.69,3.83,2.81,12.33,4.24,24.88,5.64,37.43a26.08,26.08,0,0,1,.08,3.68c-.12,4-.66,4.67-4.5,4.89C793.67,498.81,780.2,499.52,768.06,500.18Z" transform="translate(-17.24 -18.34)"/><path class="e" d="M571.08,276.85c.88-3.94,1.73-7.88,2.65-11.8q4.32-18.44,8.69-36.87c1.14-4.8,1.64-5.08,6.53-3.73a367.49,367.49,0,0,1,38.87,13.06c4.52,1.8,4.66,2,2.68,6.53q-9.78,22.42-19.79,44.73c-1.58,3.53-2.07,3.81-5.62,2.4-10.12-4-20.44-7.38-30.9-10.39C571.13,279.9,570.87,279.37,571.08,276.85Z" transform="translate(-17.24 -18.34)"/><path class="c" d="M526.9,260.74c.7-13.47,1.38-26.94,2.11-40.4.26-4.72.53-5.09,5.39-4.79A269.79,269.79,0,0,1,576,221.43c3.79.83,4.05,1.27,3.18,5.07q-5.54,24.07-11.26,48.1c-1,4-1.41,4.26-5.47,3.48-10.5-2-21.1-3.33-31.73-4.47-4-.43-4-.54-4-4.46,0-2.8,0-5.6,0-8.41Z" transform="translate(-17.24 -18.34)"/><path class="c" d="M266.78,680.09c-1.9-.4-2.54-1.72-3.24-2.9-4.94-8.28-10.36-16.28-14.58-25-1.68-3.47-3.5-6.88-5.23-10.33-2.91-5.8-2.91-5.84,2.8-8.38q16.35-7.26,32.72-14.45c3.85-1.7,7.74-3.32,11.54-5.12,2.4-1.14,3.9-.65,5.06,1.76a256.54,256.54,0,0,0,16.36,29.4c1.51,2.31.92,3.71-1.22,5.17-13.93,9.46-27.8,19-41.7,28.48A23.57,23.57,0,0,1,266.78,680.09Z" transform="translate(-17.24 -18.34)"/><path class="a" d="M389.73,785.5c-.92-.42-2-.9-3.14-1.43a348.43,348.43,0,0,1-36.27-20.22c-4-2.58-4.12-2.63-1.57-6.38q13.91-20.43,27.94-40.8c2.34-3.4,2.48-3.49,5.76-1.43a313.91,313.91,0,0,0,28.47,15.86c3.72,1.83,3.77,2,2.22,5.56Q403,759.78,392.73,782.85C392.19,784,391.87,785.65,389.73,785.5Z" transform="translate(-17.24 -18.34)"/><path class="e" d="M375.22,712.18c-.46.77-1,1.84-1.72,2.84q-12.9,18.89-25.84,37.76a36.25,36.25,0,0,1-2.14,3c-2.15,2.54-2.82,2.69-5.74.76-8.08-5.3-15.39-11.6-22.7-17.88-3.72-3.19-7.26-6.6-10.93-9.85-2.06-1.82-1.87-3.37,0-5.25q17.92-17.78,35.72-35.69c1.81-1.81,3.49-2.15,5.42-.29.63.6,1.43,1,2.06,1.63,7.43,7.22,15.63,13.52,23.89,19.75C374.23,709.68,375.37,710.33,375.22,712.18Z" transform="translate(-17.24 -18.34)"/><path class="e" d="M362,326.33c-1.92.14-2.66-1.14-3.55-2.21Q348.05,311.54,337.68,299c-3.57-4.32-7.25-8.56-10.72-13-2.53-3.21-2.41-3.87.77-6.39a352.59,352.59,0,0,1,35.11-24.07c3.25-2,3.92-1.74,5.77,1.57q12.08,21.56,24.07,43.16c1.75,3.15,1.73,4-1,5.75-9.55,6.21-19.1,12.42-28.11,19.41A9.66,9.66,0,0,1,362,326.33Z" transform="translate(-17.24 -18.34)"/><path class="e" d="M726,304.68c1.82.14,2.73,1.3,3.64,2.32,5.45,6.18,10.94,12.33,16.22,18.65,3.7,4.44,7.16,9.1,10.59,13.76,2.55,3.46,2.47,3.91-.93,6.25q-20.37,14-40.83,27.94c-3.33,2.26-3.83,2.19-6.07-.77q-9.52-12.6-20.08-24.34c-3.39-3.77-3.22-4,.43-7.65q16.73-16.77,33.5-33.5C723.53,306.26,724.53,305,726,304.68Z" transform="translate(-17.24 -18.34)"/><path class="e" d="M277.21,571.14c2-.16,2.79.86,3.26,2.33.69,2.17,1.47,4.32,2,6.53,2,7.83,5,15.36,7.76,22.92,2.26,6.1,2.3,6.26-3.83,9-10.23,4.63-20.53,9.09-30.81,13.62-4,1.77-8,3.56-12.06,5.26s-4.37,1.58-5.86-2.28c-2.77-7.2-5.53-14.42-8-21.73-2.07-6.15-3.78-12.42-5.52-18.68-1-3.51-.48-4.48,3-5.32,16.21-3.88,32.45-7.64,48.67-11.44C276.42,571.26,276.94,571.18,277.21,571.14Z" transform="translate(-17.24 -18.34)"/><path d="M628.44,725.16a2.14,2.14,0,0,1,1.64,1.22c.61,1.06,1.2,2.14,1.8,3.21q11.78,21.13,23.55,42.26c2,3.67,2,3.75-1.43,5.53a365.18,365.18,0,0,1-40.36,17.83c-3.19,1.19-3.32,1.15-4.43-2.13-5.44-16.1-10.79-32.22-16.25-48.32-.78-2.29-1-3.79,1.89-4.82a267.93,267.93,0,0,0,31.72-14C627.17,725.62,627.85,725.4,628.44,725.16Z" transform="translate(-17.24 -18.34)"/><path class="g" d="M549.24,756.3c-.21-4.12.09-4.78,4.12-5.49,10.39-1.83,20.58-4.46,30.76-7.22,4-1.1,4.31-.91,5.7,3.18q7.9,23.19,15.66,46.43c1.4,4.19,1.21,4.39-3.34,5.75a346.48,346.48,0,0,1-39.45,9.33c-5.5,1-6.11.69-6.89-4.76-1.58-10.94-3-21.91-4.53-32.86C550.6,765.8,549.89,760.93,549.24,756.3Z" transform="translate(-17.24 -18.34)"/><path class="d" d="M773.06,661.58c-.39.74-.84,1.68-1.38,2.58a359.66,359.66,0,0,1-24.38,35.6c-2.53,3.25-2.69,3.3-5.76.76-13-10.74-25.9-21.56-38.92-32.26-2.06-1.69-2.39-3-.69-5.16A260.19,260.19,0,0,0,721,635.34c1.37-2.28,2.7-2.75,5.09-1.41,14.83,8.35,29.73,16.6,44.59,24.9C771.69,659.4,773,659.77,773.06,661.58Z" transform="translate(-17.24 -18.34)"/><path class="d" d="M326.61,361.87c-.46.7-.89,1.47-1.42,2.15a282.74,282.74,0,0,0-19.3,28.25c-1.32,2.21-2.61,2.27-4.69,1.1-14.84-8.35-29.75-16.58-44.6-24.92-3.12-1.75-3.15-2.09-1.2-5.34a356.43,356.43,0,0,1,24.71-36c2.27-2.91,2.42-2.92,5.39-.46q19.28,15.95,38.49,32C325,359.46,326.33,360.18,326.61,361.87Z" transform="translate(-17.24 -18.34)"/><path class="d" d="M518.75,812.28c-4.39,0-8.79.1-13.17,0-3.61-.11-3.9-.38-3.77-4.06.37-10.7.87-21.4,1.34-32.1.25-5.79.55-11.57.83-17.36.21-4.41.29-4.65,4.43-4.58a263.35,263.35,0,0,0,33.13-1.64c3.16-.35,3.58,0,4.16,3.85,1.15,7.64,2.18,15.3,3.23,23,1.22,8.87,2.46,17.74,3.57,26.63.47,3.72.35,3.84-3.28,4.31A233.53,233.53,0,0,1,518.75,812.28Z" transform="translate(-17.24 -18.34)"/><path class="d" d="M440,803.28c-6.63-2-14.1-4-21.42-6.4-6.66-2.21-13.19-4.83-19.74-7.37-4.08-1.59-4.23-1.91-2.57-5.7q9.94-22.68,20-45.3c1.72-3.87,1.87-4,5.94-2.37q15,5.82,30.46,10.18c4,1.12,4,1.28,3.13,5.08q-5.58,24.12-11.31,48.2C444.07,801.45,444.13,804.2,440,803.28Z" transform="translate(-17.24 -18.34)"/><path class="a" d="M741.5,706a3.82,3.82,0,0,1-1.23,2.29,348.57,348.57,0,0,1-31.59,31.6c-2.63,2.3-3,2.23-5.81-1.17q-14.34-17.15-28.58-34.39c-1.12-1.35-2.16-2.78-3.39-4-2-2-1.45-3.53.48-5.23a252.27,252.27,0,0,0,23.77-23.81c1.82-2.09,3.2-2,5.22-.31,12.89,10.82,25.87,21.55,38.8,32.33C740.1,704,741.19,704.7,741.5,706Z" transform="translate(-17.24 -18.34)"/><path d="M301,723.68a321.27,321.27,0,0,1-31.4-37.41c-1.53-2.12-.5-3,1.12-4.13,7.4-5,14.76-10.1,22.13-15.15,6.65-4.56,13.29-9.15,20-13.68,3.15-2.14,3.29-2.17,5.4.66a300.18,300.18,0,0,0,21.51,25.88c1.41,1.51,2.52,2.69.44,4.74C327.22,697.41,314.37,710.33,301,723.68Z" transform="translate(-17.24 -18.34)"/><path class="f" d="M301.79,399c-.38.89-.73,1.87-1.2,2.8a302.79,302.79,0,0,0-13,29.35c-1.58,4.14-1.87,4.21-6.31,2.74q-23.23-7.7-46.41-15.53c-4-1.36-4.11-1.63-2.6-5.67a345.49,345.49,0,0,1,17-38.48c2.2-4.22,2.4-4.34,6.28-2.18q21.64,12,43.22,24.07C300,396.74,301.43,397.21,301.79,399Z" transform="translate(-17.24 -18.34)"/><path d="M612.53,293.82q7.57-17.2,15.07-34.23c2.26-5.13,4.52-10.27,6.85-15.38,1.49-3.27,1.59-3.33,4.56-1.89a384,384,0,0,1,39,21.76c2.84,1.82,2.87,1.94.89,4.85-9.59,14.06-19.24,28.07-28.8,42.15-1.4,2.07-2.49,2.91-5,1.27a275.67,275.67,0,0,0-30.74-17.19A15.05,15.05,0,0,1,612.53,293.82Z" transform="translate(-17.24 -18.34)"/><path d="M732.95,414.21c-.4-.65-.92-1.35-1.29-2.12A310.47,310.47,0,0,0,715,382.22c-2-3.07-1.89-3.22,1.14-5.3q21-14.46,42.12-28.83c2.8-1.91,2.92-1.87,4.79,1.07a397.74,397.74,0,0,1,21.78,39c.86,1.76,1.25,3.15-1.1,4.17q-25.08,10.87-50.12,21.86A2.48,2.48,0,0,1,732.95,414.21Z" transform="translate(-17.24 -18.34)"/><path class="c" d="M214.89,507.88a222.66,222.66,0,0,1,1.84-28.31c.63-5.3.79-5.38,6.29-4.64,11.11,1.49,22.21,3.1,33.32,4.64,4.69.65,9.39,1.17,14.06,1.9,4.26.67,4.52,1.17,4.09,5.53A255.56,255.56,0,0,0,273,517.44c.11,5.42-.2,5.6-5.53,5.85l-43.58,2.06c-.88,0-1.75,0-2.63.06-6.25.07-6.32,0-6.38-6.49C214.86,515.24,214.89,511.56,214.89,507.88Z" transform="translate(-17.24 -18.34)"/><path class="d" d="M273.18,478.36c-8.84-1.25-16.31-2.33-23.78-3.37-8.86-1.23-17.74-2.37-26.6-3.66-4.82-.7-5-1.09-4.2-5.71a368.65,368.65,0,0,1,9.53-40.46c1.39-4.66,1.52-4.76,6.23-3.2q23.23,7.72,46.43,15.55c3.87,1.31,4,1.44,2.91,5.16a300,300,0,0,0-7.41,31.77C275.82,477.16,274.84,478.74,273.18,478.36Z" transform="translate(-17.24 -18.34)"/><path class="f" d="M321.11,285.76c1.51.43,2.26,1.69,3.15,2.75,5.18,6.19,10.33,12.41,15.48,18.63s10.56,12.67,15.81,19c2.83,3.43,2.87,3.56-.27,6.36A301.5,301.5,0,0,0,332.2,355.6c-2.48,2.75-2.8,2.76-5.6.45q-19.29-15.93-38.47-32c-3.07-2.58-3.07-3-.54-5.91a339.65,339.65,0,0,1,30.88-30.88A4.57,4.57,0,0,1,321.11,285.76Z" transform="translate(-17.24 -18.34)"/></svg>